<svg width="277" height="276" viewBox="0 0 277 276" class="" fill="none" xmlns="http://www.w3.org/2000/svg">
<g filter="url(#filter0_b_133_7598)">
<path d="M232.472 162.793C218.557 214.724 165.178 245.543 113.246 231.628C61.3147 217.713 30.4961 164.333 44.4112 112.402C58.3262 60.4701 111.706 29.6516 163.637 43.5666C215.569 57.4817 246.387 110.861 232.472 162.793Z" stroke="black" stroke-opacity="0.06" stroke-width="30"/>
</g>
<path d="M228.453 170.5L228.699 169.842L231.784 169.802L233.638 164.85L231.331 162.81L231.578 162.152L240.069 169.816L239.889 170.295L228.453 170.5ZM234.107 165.282L232.416 169.8L239.126 169.737L234.107 165.282Z" fill="black"/>
<path d="M226.733 175.122C226.752 174.806 226.831 174.486 226.969 174.163C227.179 173.674 227.49 173.378 227.904 173.277C228.314 173.186 228.744 173.237 229.194 173.43L238.036 177.213L237.759 177.859L228.918 174.076C228.595 173.938 228.308 173.89 228.058 173.934C227.807 173.977 227.609 174.17 227.462 174.513C227.353 174.768 227.287 175.017 227.264 175.262L226.733 175.122Z" fill="black"/>
<path d="M229.683 178.105C228.767 177.627 227.943 177.468 227.212 177.627C226.48 177.785 225.893 178.29 225.45 179.14C225.267 179.489 225.135 179.834 225.053 180.176C224.975 180.532 224.929 180.898 224.913 181.274L224.343 181.157C224.349 180.8 224.406 180.415 224.513 180.002C224.611 179.585 224.763 179.178 224.97 178.781C225.231 178.281 225.552 177.884 225.933 177.59C226.315 177.297 226.73 177.099 227.18 176.997C227.634 176.91 228.108 176.911 228.602 177C229.105 177.095 229.607 177.272 230.107 177.533C230.617 177.799 231.05 178.109 231.406 178.463C231.762 178.817 232.027 179.195 232.201 179.598C232.384 180.007 232.47 180.43 232.458 180.868C232.446 181.306 232.324 181.747 232.092 182.19C231.693 182.955 231.135 183.427 230.417 183.605C229.7 183.783 228.911 183.648 228.052 183.2C227.92 183.131 227.793 183.053 227.67 182.965C227.543 182.886 227.414 182.801 227.282 182.708L229.683 178.105ZM228.094 182.429C228.858 182.899 229.552 183.087 230.178 182.993C230.798 182.909 231.279 182.541 231.619 181.889C231.811 181.521 231.898 181.158 231.88 180.801C231.867 180.457 231.784 180.132 231.633 179.825C231.481 179.517 231.278 179.237 231.025 178.985C230.772 178.733 230.5 178.531 230.207 178.378L228.094 182.429Z" fill="black"/>
<path d="M225.165 187.105L220.446 187.461L220.843 186.824L224.925 186.523L223.384 182.741L223.781 182.104L225.553 186.481L230.175 186.159L229.778 186.797L225.779 187.055L227.305 190.77L226.908 191.408L225.165 187.105Z" fill="black"/>
<path d="M221.282 193.423L216.55 193.423L216.994 192.818L221.087 192.825L219.834 188.938L220.278 188.332L221.716 192.83L226.349 192.857L225.906 193.463L221.899 193.419L223.141 197.239L222.697 197.845L221.282 193.423Z" fill="black"/>
<path d="M214.991 210.571C215.405 210.397 215.808 210.175 216.199 209.903C216.598 209.639 216.978 209.326 217.339 208.964C217.851 208.452 218.234 207.894 218.49 207.291C218.745 206.704 218.872 206.101 218.872 205.484C218.864 204.874 218.727 204.264 218.463 203.654C218.199 203.059 217.799 202.495 217.264 201.961C216.736 201.434 216.182 201.04 215.602 200.777C215.022 200.514 214.435 200.386 213.84 200.395C213.245 200.403 212.654 200.543 212.067 200.814C211.487 201.094 210.93 201.501 210.396 202.036C210.276 202.157 210.141 202.3 209.99 202.466C209.847 202.639 209.704 202.812 209.561 202.986C209.426 203.167 209.298 203.34 209.178 203.506C209.058 203.687 208.96 203.852 208.885 204.003L211.553 206.666L211.079 207.141L208.106 204.173C208.308 203.729 208.59 203.273 208.951 202.806C209.297 202.338 209.654 201.92 210.023 201.551C210.625 200.948 211.257 200.495 211.919 200.193C212.589 199.899 213.259 199.748 213.929 199.739C214.607 199.739 215.27 199.881 215.918 200.166C216.573 200.459 217.188 200.892 217.76 201.463C218.341 202.043 218.778 202.667 219.073 203.337C219.375 204.015 219.526 204.7 219.527 205.393C219.535 206.093 219.396 206.782 219.111 207.46C218.818 208.146 218.374 208.786 217.78 209.382C217.397 209.766 216.987 210.109 216.55 210.411C216.121 210.72 215.711 210.943 215.32 211.079L214.991 210.571Z" fill="black"/>
<path d="M207.914 213.78L208.104 213.609C208.572 213.189 208.884 212.716 209.04 212.189C209.196 211.677 209.217 211.094 209.101 210.439L205.517 206.444L206.04 205.975L211.097 211.61L210.609 212.048L209.564 210.883C209.715 211.434 209.72 211.973 209.578 212.501C209.435 213.044 209.134 213.521 208.675 213.934C208.611 213.991 208.544 214.044 208.474 214.093C208.41 214.15 208.352 214.188 208.298 214.208L207.914 213.78Z" fill="black"/>
<path d="M199.789 216.358C199.481 215.95 199.242 215.51 199.072 215.038C198.899 214.581 198.816 214.117 198.82 213.646C198.831 213.184 198.944 212.732 199.157 212.29C199.368 211.863 199.699 211.48 200.15 211.139C200.6 210.799 201.063 210.582 201.54 210.489C202.015 210.41 202.476 210.429 202.924 210.544C203.378 210.668 203.806 210.872 204.207 211.156C204.607 211.455 204.96 211.808 205.269 212.216C205.577 212.624 205.817 213.056 205.989 213.514C206.159 213.986 206.239 214.453 206.228 214.915C206.223 215.386 206.115 215.835 205.904 216.262C205.69 216.703 205.358 217.094 204.908 217.435C204.458 217.775 203.995 217.984 203.521 218.063C203.044 218.156 202.578 218.141 202.124 218.017C201.677 217.902 201.253 217.694 200.854 217.396C200.452 217.112 200.097 216.766 199.789 216.358ZM200.35 215.934C200.626 216.3 200.933 216.608 201.27 216.861C201.614 217.121 201.969 217.3 202.336 217.396C202.694 217.499 203.061 217.516 203.435 217.447C203.816 217.386 204.185 217.22 204.542 216.95C204.899 216.681 205.159 216.371 205.321 216.021C205.49 215.68 205.579 215.319 205.586 214.94C205.584 214.567 205.505 214.18 205.348 213.778C205.197 213.385 204.984 213.005 204.708 212.64C204.425 212.266 204.115 211.953 203.778 211.701C203.44 211.449 203.093 211.271 202.734 211.168C202.368 211.071 201.994 211.054 201.613 211.115C201.238 211.184 200.872 211.354 200.516 211.624C200.159 211.893 199.896 212.199 199.727 212.54C199.564 212.89 199.483 213.252 199.485 213.624C199.478 214.004 199.549 214.39 199.7 214.783C199.851 215.177 200.067 215.56 200.35 215.934Z" fill="black"/>
<path d="M192.771 218.213C192.832 217.694 192.984 217.219 193.226 216.787C193.46 216.36 193.805 216.001 194.264 215.709C194.641 215.469 195.02 215.341 195.402 215.325C195.78 215.324 196.147 215.406 196.504 215.57C196.858 215.748 197.196 216.001 197.517 216.326C197.838 216.652 198.133 217.026 198.402 217.448L200.573 220.857L199.98 221.234L197.869 217.92C197.634 217.552 197.384 217.219 197.119 216.921C196.859 216.632 196.589 216.406 196.309 216.244C196.019 216.087 195.721 216.005 195.414 215.999C195.098 215.998 194.774 216.104 194.441 216.315C194.064 216.556 193.771 216.888 193.561 217.312C193.357 217.745 193.219 218.212 193.146 218.713L196.262 223.603L195.669 223.981L191.601 217.595L192.153 217.243L192.771 218.213Z" fill="black"/>
<path d="M186.292 225.256C186.009 224.719 185.832 224.187 185.759 223.659C185.692 223.141 185.727 222.648 185.866 222.178C185.999 221.723 186.229 221.301 186.555 220.914C186.886 220.536 187.301 220.215 187.8 219.953C188.102 219.794 188.374 219.67 188.615 219.579C188.856 219.489 189.105 219.424 189.361 219.386L187.801 216.416L188.423 216.089L193.475 225.706L192.895 226.01L192.36 224.992C192.283 225.441 192.116 225.878 191.857 226.303C191.59 226.732 191.192 227.085 190.664 227.363C190.268 227.571 189.867 227.667 189.462 227.651C189.052 227.65 188.657 227.55 188.277 227.353C187.887 227.161 187.524 226.882 187.188 226.517C186.848 226.167 186.549 225.747 186.292 225.256ZM186.914 224.929C187.142 225.363 187.401 225.732 187.693 226.036C187.976 226.345 188.273 226.579 188.586 226.74C188.899 226.9 189.225 226.982 189.563 226.984C189.892 226.992 190.216 226.912 190.537 226.743C190.763 226.625 190.96 226.473 191.128 226.289C191.292 226.119 191.433 225.93 191.553 225.723C191.672 225.516 191.768 225.297 191.84 225.067C191.907 224.851 191.962 224.636 192.005 224.42L189.658 219.951C189.406 219.976 189.152 220.031 188.897 220.117C188.646 220.212 188.384 220.332 188.111 220.475C187.753 220.664 187.438 220.901 187.168 221.187C186.893 221.488 186.69 221.823 186.559 222.193C186.433 222.572 186.394 222.989 186.441 223.446C186.479 223.907 186.636 224.402 186.914 224.929Z" fill="black"/>
<path d="M172.054 227.529L172.716 227.293L174.732 229.628L179.715 227.857L179.79 224.779L180.453 224.543L180.057 235.975L179.575 236.146L172.054 227.529ZM179.687 228.495L175.141 230.11L179.511 235.203L179.687 228.495Z" fill="black"/>
<path d="M167.568 229.127C167.821 228.938 168.116 228.792 168.452 228.689C168.961 228.533 169.388 228.58 169.732 228.831C170.066 229.085 170.305 229.446 170.449 229.915L173.268 239.109L172.596 239.315L169.777 230.121C169.674 229.785 169.525 229.535 169.33 229.372C169.135 229.209 168.86 229.182 168.503 229.291C168.239 229.373 168.005 229.483 167.803 229.623L167.568 229.127Z" fill="black"/>
<path d="M167.219 233.286C166.994 232.278 166.584 231.546 165.991 231.089C165.398 230.633 164.634 230.509 163.698 230.718C163.314 230.804 162.964 230.926 162.65 231.084C162.328 231.254 162.019 231.454 161.721 231.684L161.443 231.174C161.72 230.948 162.05 230.743 162.435 230.559C162.817 230.364 163.226 230.218 163.663 230.121C164.213 229.997 164.724 229.987 165.194 230.089C165.665 230.191 166.084 230.381 166.451 230.659C166.811 230.949 167.116 231.312 167.366 231.747C167.619 232.193 167.806 232.691 167.93 233.242C168.055 233.803 168.098 234.334 168.057 234.834C168.016 235.334 167.897 235.781 167.702 236.174C167.508 236.577 167.24 236.916 166.897 237.189C166.555 237.462 166.139 237.653 165.651 237.762C164.809 237.951 164.089 237.828 163.49 237.395C162.891 236.961 162.485 236.272 162.274 235.326C162.241 235.18 162.219 235.032 162.207 234.882C162.185 234.734 162.167 234.58 162.153 234.42L167.219 233.286ZM162.89 234.861C163.023 235.747 163.327 236.4 163.802 236.817C164.267 237.237 164.858 237.367 165.575 237.206C165.981 237.115 166.314 236.948 166.576 236.704C166.83 236.473 167.025 236.2 167.162 235.885C167.299 235.571 167.383 235.236 167.412 234.88C167.442 234.524 167.42 234.185 167.348 233.863L162.89 234.861Z" fill="black"/>
<path d="M157.395 235.625L154.075 232.254L154.818 232.145L157.685 235.066L159.575 231.446L160.318 231.337L158.122 235.519L161.355 238.838L160.612 238.947L157.831 236.062L155.981 239.627L155.238 239.736L157.395 235.625Z" fill="black"/>
<path d="M150.017 236.741L146.971 233.119L147.721 233.069L150.349 236.206L152.518 232.746L153.267 232.696L150.75 236.692L153.711 240.255L152.962 240.305L150.417 237.21L148.292 240.619L147.543 240.669L150.017 236.741Z" fill="black"/>
<path d="M132.885 242.959C133.284 243.164 133.714 243.329 134.173 243.453C134.632 243.589 135.116 243.678 135.626 243.721C136.347 243.782 137.021 243.717 137.646 243.524C138.26 243.341 138.804 243.051 139.276 242.653C139.737 242.254 140.116 241.757 140.412 241.162C140.697 240.577 140.872 239.908 140.936 239.154C140.999 238.412 140.944 237.734 140.772 237.12C140.6 236.507 140.319 235.976 139.929 235.526C139.54 235.076 139.053 234.714 138.467 234.439C137.88 234.176 137.21 234.012 136.456 233.948C136.287 233.934 136.09 233.922 135.866 233.914C135.641 233.916 135.417 233.918 135.192 233.921C134.967 233.934 134.752 233.947 134.547 233.962C134.332 233.986 134.142 234.018 133.978 234.058L133.659 237.814L132.99 237.758L133.346 233.571C133.817 233.44 134.347 233.363 134.937 233.338C135.517 233.302 136.067 233.306 136.587 233.35C137.436 233.422 138.189 233.614 138.847 233.927C139.504 234.25 140.051 234.665 140.489 235.172C140.926 235.691 141.243 236.289 141.442 236.969C141.64 237.659 141.705 238.407 141.636 239.214C141.567 240.031 141.37 240.768 141.047 241.424C140.723 242.092 140.297 242.649 139.767 243.095C139.237 243.552 138.62 243.89 137.917 244.108C137.204 244.326 136.428 244.399 135.59 244.327C135.049 244.281 134.522 244.188 134.011 244.049C133.498 243.92 133.063 243.749 132.707 243.537L132.885 242.959Z" fill="black"/>
<path d="M125.819 239.601L126.072 239.637C126.694 239.726 127.257 239.662 127.762 239.444C128.254 239.235 128.715 238.876 129.143 238.367L129.904 233.054L130.6 233.153L129.526 240.649L128.877 240.556L129.099 239.006C128.774 239.476 128.363 239.826 127.868 240.056C127.36 240.295 126.8 240.371 126.189 240.283C126.105 240.271 126.021 240.254 125.938 240.231C125.854 240.219 125.787 240.199 125.737 240.17L125.819 239.601Z" fill="black"/>
<path d="M118.71 235.054C118.824 234.556 119.006 234.089 119.257 233.655C119.496 233.229 119.797 232.866 120.16 232.566C120.52 232.276 120.938 232.071 121.414 231.949C121.876 231.836 122.383 231.842 122.933 231.967C123.484 232.092 123.948 232.306 124.327 232.611C124.693 232.923 124.976 233.288 125.176 233.704C125.374 234.132 125.494 234.59 125.535 235.08C125.564 235.578 125.522 236.076 125.409 236.575C125.296 237.073 125.12 237.536 124.881 237.962C124.63 238.396 124.324 238.758 123.963 239.048C123.6 239.348 123.187 239.554 122.725 239.668C122.25 239.789 121.737 239.787 121.186 239.662C120.636 239.537 120.178 239.319 119.812 239.006C119.433 238.702 119.145 238.336 118.947 237.909C118.747 237.492 118.632 237.035 118.603 236.537C118.562 236.047 118.597 235.553 118.71 235.054ZM119.396 235.21C119.294 235.656 119.256 236.09 119.281 236.511C119.303 236.942 119.395 237.328 119.558 237.671C119.71 238.011 119.933 238.302 120.228 238.544C120.52 238.796 120.884 238.971 121.321 239.07C121.757 239.169 122.161 239.168 122.534 239.067C122.904 238.977 123.236 238.812 123.53 238.573C123.815 238.331 124.06 238.021 124.266 237.642C124.47 237.273 124.622 236.866 124.724 236.419C124.827 235.962 124.867 235.524 124.842 235.103C124.818 234.682 124.729 234.302 124.577 233.962C124.415 233.619 124.187 233.322 123.895 233.07C123.6 232.828 123.235 232.658 122.799 232.559C122.363 232.46 121.959 232.456 121.589 232.546C121.217 232.647 120.889 232.819 120.605 233.06C120.31 233.299 120.061 233.603 119.857 233.971C119.653 234.34 119.5 234.753 119.396 235.21Z" fill="black"/>
<path d="M112.373 230.771C112.81 230.485 113.272 230.297 113.76 230.206C114.237 230.112 114.734 230.147 115.251 230.312C115.678 230.448 116.019 230.657 116.275 230.94C116.519 231.229 116.691 231.564 116.794 231.943C116.884 232.329 116.906 232.75 116.862 233.205C116.818 233.66 116.72 234.126 116.568 234.603L115.342 238.455L114.673 238.241L115.864 234.497C115.997 234.081 116.092 233.675 116.151 233.28C116.206 232.896 116.206 232.544 116.151 232.225C116.086 231.902 115.958 231.621 115.766 231.381C115.564 231.138 115.275 230.957 114.9 230.837C114.474 230.701 114.031 230.689 113.571 230.8C113.108 230.921 112.661 231.114 112.23 231.379L110.471 236.904L109.801 236.691L112.098 229.476L112.722 229.675L112.373 230.771Z" fill="black"/>
<path d="M102.858 230.332C103.088 229.771 103.382 229.293 103.739 228.898C104.092 228.513 104.493 228.223 104.942 228.027C105.377 227.837 105.847 227.742 106.353 227.742C106.856 227.753 107.368 227.865 107.89 228.079C108.205 228.208 108.475 228.336 108.7 228.462C108.924 228.589 109.133 228.738 109.328 228.91L110.6 225.806L111.25 226.072L107.131 236.123L106.525 235.875L106.961 234.811C106.568 235.041 106.125 235.193 105.634 235.268C105.133 235.339 104.607 235.262 104.055 235.035C103.641 234.866 103.31 234.621 103.061 234.3C102.799 233.986 102.621 233.619 102.528 233.201C102.425 232.779 102.405 232.322 102.468 231.83C102.518 231.344 102.648 230.845 102.858 230.332ZM103.508 230.599C103.322 231.052 103.207 231.488 103.162 231.907C103.107 232.322 103.118 232.701 103.197 233.044C103.275 233.386 103.422 233.688 103.637 233.949C103.842 234.206 104.113 234.403 104.448 234.54C104.684 234.637 104.927 234.691 105.176 234.701C105.411 234.717 105.647 234.704 105.882 234.662C106.118 234.621 106.347 234.553 106.569 234.46C106.778 234.373 106.978 234.277 107.171 234.172L109.085 229.501C108.905 229.323 108.7 229.164 108.469 229.024C108.235 228.893 107.975 228.77 107.689 228.653C107.315 228.499 106.931 228.411 106.538 228.388C106.13 228.37 105.743 228.43 105.376 228.568C105.005 228.715 104.66 228.953 104.341 229.283C104.012 229.608 103.734 230.047 103.508 230.599Z" fill="black"/>
<path d="M91.9872 220.874L92.5922 221.232L92.0911 224.276L96.6425 226.968L99.0549 225.054L99.6599 225.411L90.6283 232.431L90.1883 232.17L91.9872 220.874ZM96.1354 227.354L91.9828 224.899L90.8717 231.517L96.1354 227.354Z" fill="black"/>
<path d="M87.9072 218.469C88.215 218.543 88.516 218.677 88.8101 218.869C89.2557 219.161 89.4921 219.519 89.5194 219.944C89.5378 220.363 89.4129 220.778 89.1446 221.188L83.8794 229.235L83.2912 228.85L88.5565 220.803C88.7489 220.509 88.8455 220.235 88.8462 219.981C88.847 219.727 88.6914 219.498 88.3795 219.294C88.1478 219.142 87.9135 219.033 87.6767 218.967L87.9072 218.469Z" fill="black"/>
<path d="M84.5086 220.868C85.1375 220.048 85.4368 219.265 85.4067 218.517C85.3765 217.769 84.9813 217.103 84.2208 216.519C83.9082 216.28 83.5908 216.09 83.2686 215.95C82.9314 215.812 82.579 215.703 82.2114 215.622L82.425 215.081C82.7757 215.149 83.145 215.271 83.5329 215.448C83.9272 215.616 84.3018 215.837 84.6567 216.109C85.1045 216.452 85.44 216.837 85.6633 217.264C85.8865 217.69 86.0094 218.133 86.0321 218.594C86.0398 219.056 85.9569 219.523 85.7835 219.994C85.6035 220.473 85.3418 220.937 84.9982 221.385C84.6481 221.841 84.2681 222.214 83.858 222.503C83.448 222.793 83.0295 222.988 82.6023 223.09C82.1687 223.2 81.7372 223.212 81.3079 223.124C80.8786 223.036 80.4654 222.84 80.0683 222.535C79.3839 222.01 79.016 221.379 78.9644 220.641C78.9129 219.903 79.1821 219.15 79.772 218.381C79.8628 218.263 79.962 218.151 80.0696 218.046C80.1688 217.934 80.2755 217.821 80.3897 217.708L84.5086 220.868ZM80.5241 218.556C79.9289 219.227 79.6235 219.878 79.6081 220.511C79.5841 221.137 79.8637 221.673 80.4467 222.121C80.7762 222.373 81.1186 222.522 81.4738 222.566C81.8141 222.613 82.1488 222.588 82.4779 222.491C82.807 222.395 83.1175 222.244 83.4094 222.038C83.7014 221.833 83.9478 221.599 84.1488 221.337L80.5241 218.556Z" fill="black"/>
<path d="M76.4239 214.849L76.8991 210.141L77.4573 210.643L77.0389 214.715L81.0319 213.859L81.5901 214.361L76.9702 215.34L76.4784 219.948L75.9202 219.445L76.3659 215.463L72.4405 216.315L71.8824 215.813L76.4239 214.849Z" fill="black"/>
<path d="M70.857 209.885L71.6781 205.225L72.1977 205.767L71.4803 209.797L75.5255 209.238L76.0451 209.78L71.3656 210.416L70.5354 214.974L70.0157 214.432L70.7539 210.493L66.7764 211.054L66.2568 210.512L70.857 209.885Z" fill="black"/>
<path d="M55.0794 200.717C55.1781 201.155 55.3269 201.591 55.5258 202.023C55.7161 202.462 55.9578 202.891 56.251 203.31C56.6664 203.903 57.1484 204.378 57.6973 204.735C58.2313 205.089 58.8023 205.319 59.4104 205.427C60.0124 205.525 60.6367 205.498 61.2831 205.344C61.9148 205.188 62.5403 204.893 63.1597 204.459C63.7704 204.032 64.2558 203.555 64.6161 203.03C64.9764 202.505 65.2044 201.948 65.3003 201.361C65.3962 200.774 65.3617 200.168 65.1967 199.542C65.023 198.923 64.7194 198.303 64.2857 197.684C64.1879 197.544 64.0706 197.386 63.9336 197.209C63.7879 197.038 63.6421 196.867 63.4964 196.696C63.342 196.531 63.1936 196.375 63.0514 196.227C62.8943 196.077 62.7482 195.952 62.613 195.852L59.5247 198.014L59.1399 197.465L62.5814 195.055C62.9837 195.332 63.3833 195.69 63.7803 196.127C64.18 196.549 64.5294 196.974 64.8287 197.401C65.3174 198.099 65.6525 198.8 65.8341 199.505C66.0069 200.216 66.0388 200.903 65.9298 201.564C65.8121 202.231 65.5561 202.859 65.1619 203.447C64.7589 204.041 64.2259 204.571 63.5628 205.035C62.8911 205.505 62.1997 205.827 61.4887 206C60.7689 206.179 60.0679 206.208 59.3856 206.088C58.6946 205.973 58.0403 205.716 57.4225 205.317C56.7987 204.909 56.2455 204.36 55.7629 203.671C55.4514 203.226 55.1852 202.762 54.9644 202.28C54.7349 201.803 54.5874 201.361 54.5219 200.952L55.0794 200.717Z" fill="black"/>
<path d="M53.1419 193.175L53.2769 193.392C53.6087 193.925 54.0204 194.315 54.512 194.561C54.989 194.804 55.5599 194.925 56.2248 194.926L60.7829 192.091L61.1541 192.688L54.7239 196.687L54.378 196.13L55.7075 195.304C55.1384 195.357 54.6063 195.267 54.1113 195.036C53.6016 194.801 53.1837 194.421 52.8575 193.897C52.8125 193.825 52.772 193.749 52.7361 193.671C52.6911 193.599 52.6636 193.535 52.6536 193.478L53.1419 193.175Z" fill="black"/>
<path d="M52.0392 184.779C52.4944 184.546 52.9692 184.387 53.4638 184.302C53.944 184.212 54.4155 184.21 54.8783 184.296C55.3316 184.387 55.7572 184.576 56.1551 184.863C56.5387 185.145 56.859 185.538 57.116 186.04C57.373 186.543 57.5061 187.037 57.5153 187.523C57.5101 188.004 57.4118 188.455 57.2203 188.876C57.0194 189.301 56.7443 189.687 56.395 190.033C56.0313 190.375 55.6219 190.662 55.1668 190.895C54.7117 191.128 54.244 191.289 53.7638 191.379C53.2692 191.465 52.7953 191.462 52.342 191.371C51.8792 191.284 51.456 191.1 51.0724 190.818C50.6745 190.531 50.347 190.136 50.09 189.633C49.833 189.131 49.7071 188.639 49.7123 188.158C49.7031 187.672 49.799 187.217 49.9999 186.791C50.1914 186.37 50.4689 185.989 50.8326 185.647C51.1819 185.301 51.5841 185.012 52.0392 184.779ZM52.3593 185.405C51.9515 185.613 51.5942 185.862 51.2872 186.15C50.9708 186.444 50.7332 186.763 50.5743 187.107C50.4107 187.442 50.3306 187.8 50.334 188.181C50.328 188.567 50.4268 188.959 50.6305 189.357C50.8341 189.755 51.0941 190.065 51.4105 190.286C51.7174 190.512 52.0569 190.661 52.4291 190.734C52.7964 190.797 53.1916 190.787 53.6147 190.702C54.0284 190.622 54.4391 190.478 54.8468 190.269C55.264 190.056 55.6261 189.805 55.933 189.516C56.24 189.228 56.4753 188.916 56.639 188.581C56.7978 188.237 56.8802 187.871 56.8862 187.486C56.8828 187.105 56.7792 186.715 56.5756 186.317C56.3719 185.919 56.1166 185.607 55.8098 185.381C55.4934 185.16 55.1516 185.018 54.7842 184.954C54.4121 184.881 54.0192 184.885 53.6055 184.965C53.1919 185.045 52.7765 185.192 52.3593 185.405Z" fill="black"/>
<path d="M51.4324 177.567C51.9327 177.717 52.3745 177.949 52.7581 178.263C53.1375 178.567 53.4312 178.97 53.639 179.471C53.8101 179.885 53.8703 180.28 53.8195 180.659C53.7548 181.031 53.6107 181.379 53.3872 181.702C53.1498 182.02 52.8428 182.308 52.4662 182.568C52.0896 182.828 51.6701 183.053 51.2076 183.245L47.4736 184.791L47.2047 184.142L50.8354 182.638C51.2388 182.471 51.6103 182.283 51.9499 182.073C52.2797 181.867 52.5489 181.64 52.7575 181.393C52.962 181.135 53.0941 180.855 53.1537 180.554C53.2093 180.243 53.1617 179.905 53.0109 179.541C52.8398 179.128 52.5636 178.781 52.1825 178.501C51.7915 178.225 51.3557 178.008 50.8752 177.85L45.5177 180.068L45.2487 179.419L52.2445 176.522L52.4951 177.127L51.4324 177.567Z" fill="black"/>
<path d="M45.656 170.08C46.2337 169.894 46.7885 169.81 47.3205 169.829C47.8423 169.85 48.3228 169.97 48.7619 170.186C49.1876 170.395 49.5637 170.694 49.89 171.081C50.2062 171.471 50.451 171.935 50.6244 172.472C50.7291 172.796 50.8055 173.085 50.8536 173.338C50.9017 173.591 50.9228 173.847 50.9169 174.107L54.1094 173.076L54.3253 173.745L43.9877 177.082L43.7865 176.458L44.8811 176.105C44.4515 175.953 44.0496 175.713 43.6755 175.386C43.2982 175.049 43.0179 174.597 42.8347 174.029C42.6974 173.604 42.671 173.193 42.7556 172.796C42.8268 172.392 42.992 172.02 43.2512 171.679C43.5072 171.328 43.8436 171.018 44.2604 170.749C44.6638 170.473 45.129 170.251 45.656 170.08ZM45.8719 170.749C45.4057 170.9 44.998 171.093 44.6489 171.329C44.2965 171.554 44.0145 171.808 43.803 172.089C43.5915 172.369 43.4556 172.676 43.3951 173.009C43.3314 173.332 43.3552 173.666 43.4664 174.01C43.5449 174.253 43.6607 174.473 43.8137 174.67C43.9534 174.86 44.1151 175.032 44.2988 175.185C44.4826 175.338 44.6817 175.47 44.8962 175.58C45.0973 175.683 45.3002 175.774 45.5049 175.853L50.3088 174.303C50.3281 174.05 50.3171 173.791 50.2759 173.525C50.2245 173.261 50.1514 172.983 50.0565 172.689C49.9322 172.304 49.752 171.953 49.5159 171.638C49.2664 171.316 48.9708 171.059 48.6291 170.867C48.2773 170.678 47.8725 170.568 47.4148 170.537C46.9537 170.495 46.4395 170.566 45.8719 170.749Z" fill="black"/>
<path d="M45.85 155.6L45.9651 156.293L43.3115 157.867L44.1771 163.083L47.1942 163.7L47.3092 164.393L36.1259 161.99L36.0423 161.486L45.85 155.6ZM43.5548 162.943L42.765 158.184L36.9824 161.589L43.5548 162.943Z" fill="black"/>
<path d="M45.0546 150.9C45.1959 151.183 45.2876 151.5 45.3295 151.848C45.3931 152.377 45.2709 152.789 44.9631 153.083C44.654 153.367 44.2562 153.538 43.7699 153.597L34.2219 154.745L34.138 154.047L43.686 152.899C44.0349 152.857 44.3068 152.754 44.5018 152.592C44.6967 152.429 44.7719 152.162 44.7274 151.792C44.6944 151.517 44.6269 151.268 44.5249 151.044L45.0546 150.9Z" fill="black"/>
<path d="M41.0226 149.915C42.0546 149.87 42.8472 149.594 43.4004 149.09C43.9536 148.586 44.2089 147.855 44.1663 146.897C44.1488 146.504 44.0899 146.139 43.9896 145.802C43.8783 145.455 43.7352 145.115 43.5605 144.782L44.1119 144.597C44.2857 144.909 44.4297 145.271 44.5439 145.681C44.6688 146.091 44.7412 146.52 44.7611 146.967C44.7861 147.531 44.7073 148.035 44.5246 148.48C44.3419 148.926 44.0816 149.305 43.7437 149.619C43.3948 149.922 42.9842 150.159 42.5121 150.329C42.0293 150.5 41.506 150.598 40.9421 150.623C40.3676 150.648 39.8377 150.597 39.3523 150.47C38.8669 150.342 38.4478 150.147 38.095 149.886C37.7316 149.625 37.4454 149.302 37.2364 148.917C37.0274 148.532 36.9117 148.089 36.8895 147.589C36.8511 146.727 37.0977 146.039 37.6292 145.525C38.1606 145.011 38.9104 144.733 39.8786 144.69C40.0275 144.683 40.177 144.687 40.3269 144.702C40.4763 144.706 40.6313 144.715 40.7918 144.729L41.0226 149.915ZM40.229 145.378C39.3325 145.353 38.6372 145.539 38.1431 145.934C37.6485 146.319 37.4175 146.878 37.4502 147.612C37.4686 148.027 37.5752 148.385 37.7698 148.685C37.9532 148.975 38.1878 149.215 38.4734 149.405C38.759 149.595 39.0744 149.736 39.4196 149.827C39.7648 149.918 40.1023 149.956 40.4321 149.942L40.229 145.378Z" fill="black"/>
<path d="M40.4198 139.891L44.3235 137.216L44.2999 137.967L40.9192 140.274L44.1491 142.773L44.1256 143.523L40.3967 140.625L36.5594 143.222L36.5829 142.471L39.9133 140.242L36.7297 137.793L36.7532 137.043L40.4198 139.891Z" fill="black"/>
<path d="M40.6115 132.411L44.708 130.043L44.6272 130.789L41.0802 132.832L44.11 135.57L44.0292 136.316L40.5325 133.142L36.5081 135.438L36.5889 134.692L40.0796 132.723L37.0923 130.038L37.1731 129.292L40.6115 132.411Z" fill="black"/>
<path d="M37.5376 114.08C37.2656 114.437 37.0277 114.831 36.8241 115.262C36.6103 115.689 36.4372 116.15 36.3049 116.644C36.1175 117.344 36.0635 118.018 36.143 118.668C36.2149 119.305 36.4053 119.89 36.714 120.425C37.0255 120.95 37.4479 121.41 37.9812 121.807C38.5069 122.19 39.1349 122.48 39.8653 122.675C40.5853 122.868 41.2624 122.934 41.8963 122.872C42.5303 122.81 43.1029 122.628 43.6144 122.324C44.1258 122.02 44.5681 121.603 44.9412 121.075C45.3041 120.544 45.5834 119.913 45.7791 119.183C45.8232 119.018 45.869 118.826 45.9166 118.608C45.9539 118.386 45.9912 118.165 46.0285 117.943C46.0556 117.719 46.0798 117.505 46.1013 117.301C46.1153 117.084 46.1173 116.892 46.1072 116.724L42.4656 115.748L42.6393 115.1L46.6974 116.187C46.7435 116.674 46.7268 117.209 46.6472 117.795C46.5806 118.372 46.4798 118.913 46.3447 119.417C46.1242 120.24 45.8023 120.947 45.3791 121.54C44.9455 122.129 44.4404 122.595 43.8637 122.936C43.2768 123.275 42.6313 123.483 41.9274 123.559C41.2132 123.632 40.4651 123.564 39.6833 123.354C38.8913 123.142 38.2005 122.819 37.611 122.385C37.0113 121.949 36.5382 121.431 36.1918 120.831C35.8352 120.228 35.6113 119.562 35.5202 118.832C35.4319 118.092 35.4967 117.315 35.7144 116.502C35.855 115.978 36.0391 115.476 36.2667 114.997C36.4841 114.515 36.7284 114.117 36.9998 113.804L37.5376 114.08Z" fill="white"/>
<path d="M42.0158 107.904L41.9364 108.147C41.7413 108.745 41.7076 109.311 41.8354 109.845C41.9563 110.367 42.2305 110.882 42.6579 111.391L47.7598 113.058L47.5415 113.727L40.3441 111.375L40.5475 110.752L42.0356 111.238C41.6291 110.837 41.3552 110.372 41.214 109.844C41.066 109.303 41.0879 108.738 41.2797 108.151C41.3062 108.07 41.3377 107.991 41.3743 107.913C41.4008 107.832 41.4324 107.77 41.4692 107.726L42.0158 107.904Z" fill="white"/>
<path d="M47.8254 101.402C48.2961 101.601 48.7231 101.863 49.1063 102.187C49.4838 102.497 49.7882 102.857 50.0193 103.267C50.2406 103.673 50.3692 104.121 50.4049 104.61C50.435 105.085 50.34 105.583 50.1199 106.103C49.8999 106.622 49.6067 107.042 49.2403 107.361C48.8683 107.666 48.4595 107.88 48.014 108.004C47.5586 108.123 47.0861 108.16 46.5965 108.115C46.1012 108.056 45.6182 107.926 45.1474 107.727C44.6767 107.528 44.2526 107.273 43.875 106.963C43.4918 106.639 43.1896 106.274 42.9682 105.868C42.7371 105.458 42.6065 105.015 42.5764 104.54C42.5407 104.05 42.6328 103.546 42.8529 103.026C43.0729 102.506 43.369 102.094 43.741 101.789C44.1074 101.47 44.5182 101.25 44.9736 101.131C45.4191 101.007 45.8895 100.975 46.3848 101.035C46.8745 101.08 47.3546 101.202 47.8254 101.402ZM47.5514 102.049C47.1297 101.87 46.7096 101.756 46.2913 101.706C45.8632 101.652 45.4661 101.675 45.1002 101.774C44.7384 101.864 44.4126 102.033 44.1228 102.28C43.8233 102.523 43.5863 102.851 43.4119 103.263C43.2375 103.675 43.1673 104.073 43.2011 104.457C43.2252 104.837 43.3288 105.194 43.5121 105.526C43.6995 105.848 43.9616 106.144 44.2984 106.414C44.6254 106.679 44.9998 106.901 45.4215 107.08C45.853 107.263 46.2779 107.379 46.6962 107.429C47.1146 107.479 47.5046 107.459 47.8664 107.369C48.2324 107.269 48.5651 107.098 48.8647 106.855C49.1545 106.607 49.3865 106.278 49.5609 105.866C49.7353 105.454 49.8105 105.058 49.7864 104.678C49.7525 104.293 49.6419 103.94 49.4545 103.618C49.2712 103.286 49.0161 102.987 48.6891 102.721C48.3621 102.456 47.9829 102.232 47.5514 102.049Z" fill="white"/>
<path d="M52.8679 96.4889C53.074 96.9688 53.18 97.4565 53.1858 97.9519C53.1965 98.438 53.0762 98.9218 52.825 99.4034C52.6182 99.7999 52.3534 100.1 52.0308 100.304C51.7036 100.494 51.3444 100.607 50.9532 100.643C50.5574 100.665 50.1391 100.615 49.6982 100.493C49.2573 100.371 48.815 100.194 48.3712 99.9628L44.7878 98.0936L45.1129 97.4704L48.5971 99.2879C48.9842 99.4899 49.3673 99.6536 49.7462 99.7792C50.1157 99.8999 50.4623 99.9606 50.7862 99.9614C51.1151 99.9528 51.4141 99.8745 51.6834 99.7267C51.9576 99.5695 52.1859 99.3162 52.3681 98.9668C52.575 98.5702 52.6634 98.1359 52.6334 97.6638C52.5939 97.1868 52.4806 96.7133 52.2934 96.2432L47.1521 93.5613L47.4771 92.9382L54.1906 96.4401L53.8877 97.0208L52.8679 96.4889Z" fill="white"/>
<path d="M54.9626 87.1242C55.4756 87.4489 55.8951 87.8215 56.2212 88.2422C56.5383 88.6572 56.7542 89.1026 56.8689 89.5785C56.9803 90.0397 56.9917 90.5196 56.903 91.0181C56.8054 91.5108 56.6057 91.9957 56.3038 92.4726C56.1215 92.7606 55.9485 93.004 55.7849 93.2029C55.6212 93.4017 55.4378 93.5819 55.2348 93.7433L58.0694 95.5374L57.6935 96.1313L48.5149 90.3218L48.8651 89.7683L49.837 90.3835C49.6791 89.9559 49.6061 89.4937 49.618 88.9971C49.6355 88.4914 49.8038 87.9867 50.1228 87.4827C50.362 87.1048 50.661 86.8215 51.02 86.6327C51.3756 86.4293 51.7674 86.3181 52.1953 86.299C52.629 86.271 53.0825 86.3312 53.5558 86.4795C54.0257 86.6131 54.4947 86.828 54.9626 87.1242ZM54.5867 87.7181C54.1728 87.4561 53.7635 87.2664 53.3589 87.1489C52.96 87.0225 52.585 86.9679 52.2338 86.9851C51.8826 87.0023 51.5598 87.0941 51.2653 87.2606C50.9766 87.4182 50.7353 87.6499 50.5417 87.9559C50.405 88.1718 50.31 88.4016 50.2567 88.6451C50.2001 88.874 50.1716 89.108 50.1714 89.3474C50.1712 89.5867 50.1975 89.8239 50.2503 90.059C50.2999 90.2794 50.3596 90.4937 50.4295 90.7018L54.6949 93.4015C54.9012 93.2548 55.0935 93.0804 55.2719 92.8782C55.4413 92.6703 55.6086 92.4359 55.7738 92.1749C55.9902 91.833 56.1441 91.4704 56.2355 91.0871C56.3235 90.6891 56.332 90.2974 56.2608 89.912C56.1806 89.521 56.0061 89.1396 55.7373 88.7678C55.4742 88.387 55.0906 88.0371 54.5867 87.7181Z" fill="white"/>
<path d="M66.1266 78.0765L65.6682 78.6094L62.7591 77.5821L59.311 81.5907L60.7722 84.3015L60.3138 84.8343L54.9877 74.7114L55.3211 74.3239L66.1266 78.0765ZM59.0192 81.0236L62.1651 77.3662L55.8447 75.1114L59.0192 81.0236Z" fill="white"/>
<path d="M69.219 74.4513C69.0922 74.7415 68.9085 75.0146 68.6677 75.2706C68.3029 75.6584 67.9088 75.8287 67.4854 75.7814C67.0694 75.7263 66.6829 75.5309 66.3261 75.1953L59.3213 68.6064L59.8029 68.0944L66.8077 74.6833C67.0636 74.9241 67.3166 75.067 67.5666 75.1121C67.8166 75.1572 68.0693 75.044 68.3247 74.7725C68.5144 74.5708 68.6624 74.3591 68.7686 74.1374L69.219 74.4513Z" fill="white"/>
<path d="M67.1939 70.908C67.8922 71.6692 68.6123 72.0997 69.3542 72.1995C70.0962 72.2993 70.8203 72.0252 71.5265 71.3773C71.8169 71.1109 72.0589 70.8312 72.2524 70.538C72.4466 70.2298 72.6152 69.9016 72.7584 69.5535L73.254 69.8576C73.1266 70.1913 72.9422 70.5338 72.701 70.8852C72.4669 71.2445 72.1851 71.5753 71.8555 71.8776C71.4396 72.2592 71.0023 72.523 70.5438 72.6691C70.0852 72.8152 69.6273 72.8595 69.17 72.8021C68.7133 72.7297 68.2681 72.5673 67.8342 72.3149C67.3932 72.0547 66.9819 71.7166 66.6003 71.3007C66.2116 70.8769 65.9101 70.4381 65.696 69.9841C65.4819 69.5302 65.3617 69.0841 65.3354 68.6458C65.3018 68.1996 65.3655 67.7727 65.5262 67.3651C65.687 66.9575 65.9518 66.5845 66.3207 66.2461C66.9563 65.6629 67.6418 65.4098 68.3772 65.4867C69.1126 65.5636 69.8078 65.9592 70.4629 66.6733C70.5637 66.7832 70.6567 66.9002 70.7418 67.0245C70.8347 67.1416 70.9273 67.2662 71.0196 67.3983L67.1939 70.908ZM70.161 67.3839C69.6033 66.6815 69.0144 66.2679 68.3941 66.1432C67.7817 66.0113 67.2048 66.1937 66.6633 66.6905C66.3573 66.9713 66.1516 67.2827 66.0464 67.6249C65.9419 67.9521 65.9087 68.2861 65.9467 68.6269C65.9848 68.9677 66.0798 69.2997 66.2317 69.6228C66.3836 69.9459 66.5711 70.2291 66.7943 70.4724L70.161 67.3839Z" fill="white"/>
<path d="M74.6625 63.8339L79.2189 65.111L78.6283 65.5746L74.6891 64.4629L74.846 68.5435L74.2554 69.0071L74.0844 64.2876L69.6303 63.0115L70.2209 62.5479L74.0677 63.6712L73.9027 59.6579L74.4933 59.1943L74.6625 63.8339Z" fill="white"/>
<path d="M80.6571 59.0678L85.1026 60.6893L84.4783 61.1064L80.6356 59.6969L80.4802 63.7776L79.856 64.1947L80.0461 59.476L75.7025 57.8632L76.3268 57.4461L80.0765 58.8601L80.2186 54.8459L80.8429 54.4288L80.6571 59.0678Z" fill="white"/>
<path d="M92.1289 45.2282C91.6805 45.2509 91.2262 45.3235 90.766 45.446C90.3012 45.5589 89.8375 45.7242 89.375 45.9419C88.7198 46.2504 88.1698 46.6447 87.7249 47.1249C87.2851 47.5909 86.9607 48.1144 86.7516 48.6954C86.5522 49.2719 86.4732 49.8917 86.5147 50.5549C86.5612 51.2039 86.7456 51.8705 87.0676 52.5546C87.3851 53.2291 87.7721 53.7885 88.2285 54.2328C88.6848 54.6771 89.1942 54.9964 89.7565 55.1908C90.3188 55.3851 90.9222 55.4542 91.5667 55.398C92.2066 55.3321 92.8686 55.1382 93.5527 54.8161C93.7069 54.7435 93.8829 54.6548 94.0807 54.5499C94.274 54.4354 94.4672 54.3209 94.6605 54.2063C94.8493 54.0822 95.0284 53.9625 95.1978 53.8474C95.3724 53.7182 95.5206 53.5954 95.6424 53.4792L94.0367 50.0683L94.6437 49.7825L96.4332 53.5837C96.0914 53.9329 95.6715 54.266 95.1733 54.5829C94.6892 54.9049 94.2112 55.1771 93.739 55.3994C92.9682 55.7622 92.22 55.9732 91.4945 56.0323C90.7644 56.0817 90.0828 55.9965 89.4496 55.7766C88.8119 55.5472 88.2368 55.1882 87.7243 54.6997C87.2073 54.2015 86.7764 53.5863 86.4317 52.854C86.0824 52.112 85.8831 51.3761 85.8336 50.646C85.7797 49.9063 85.87 49.2105 86.1046 48.5586C86.3346 47.8971 86.699 47.2959 87.1977 46.7551C87.7061 46.2097 88.3408 45.7579 89.102 45.3995C89.5934 45.1682 90.0956 44.9847 90.6086 44.8492C91.117 44.704 91.5784 44.6339 91.9927 44.639L92.1289 45.2282Z" fill="white"/>
<path d="M100.228 44.447L99.9912 44.5422C99.408 44.7763 98.9526 45.114 98.6248 45.5554C98.303 45.983 98.0841 46.5241 97.9682 47.1788L99.9676 52.16L99.3153 52.4218L96.4948 45.3948L97.1026 45.1508L97.6857 46.6037C97.7325 46.0341 97.9129 45.5256 98.2268 45.0783C98.5466 44.6171 98.9931 44.2715 99.5664 44.0414C99.6454 44.0097 99.7265 43.9829 99.8095 43.961C99.8886 43.9293 99.9568 43.9134 100.014 43.9133L100.228 44.447Z" fill="white"/>
<path d="M108.397 44.896C108.549 45.3842 108.624 45.8793 108.624 46.3811C108.631 46.8697 108.552 47.3346 108.388 47.7759C108.221 48.207 107.962 48.5941 107.611 48.9372C107.268 49.267 106.827 49.5156 106.287 49.683C105.748 49.8505 105.239 49.8973 104.759 49.8234C104.286 49.7362 103.858 49.5623 103.476 49.3018C103.091 49.0312 102.757 48.6942 102.476 48.291C102.202 47.8744 101.989 47.422 101.837 46.9338C101.685 46.4456 101.606 45.9573 101.599 45.4687C101.6 44.9668 101.683 44.5003 101.85 44.0692C102.014 43.628 102.268 43.2424 102.612 42.9127C102.963 42.5695 103.407 42.3143 103.946 42.1468C104.485 41.9794 104.992 41.9393 105.465 42.0265C105.945 42.1003 106.378 42.2726 106.763 42.5433C107.145 42.8038 107.473 43.1423 107.747 43.5589C108.029 43.9622 108.245 44.4079 108.397 44.896ZM107.726 45.1046C107.59 44.6672 107.406 44.2727 107.174 43.921C106.939 43.5591 106.665 43.2705 106.353 43.0553C106.051 42.8368 105.712 42.6968 105.336 42.6352C104.957 42.5634 104.554 42.5938 104.127 42.7265C103.699 42.8592 103.35 43.0626 103.078 43.3366C102.803 43.6004 102.598 43.9094 102.463 44.2637C102.338 44.6148 102.281 45.0061 102.292 45.4375C102.3 45.8587 102.372 46.288 102.508 46.7253C102.647 47.1728 102.833 47.5724 103.065 47.9241C103.297 48.2758 103.564 48.5609 103.866 48.7793C104.178 48.9946 104.524 49.1381 104.903 49.2099C105.279 49.2715 105.68 49.236 106.107 49.1033C106.535 48.9706 106.886 48.7724 107.16 48.5085C107.432 48.2346 107.631 47.922 107.756 47.5709C107.891 47.2166 107.955 46.8289 107.946 46.4076C107.938 45.9864 107.865 45.5521 107.726 45.1046Z" fill="white"/>
<path d="M115.434 45.5511C115.2 46.0181 114.895 46.4136 114.52 46.7376C114.156 47.0592 113.709 47.2793 113.179 47.3979C112.742 47.4956 112.342 47.4869 111.978 47.372C111.622 47.2443 111.304 47.0426 111.024 46.7669C110.752 46.4785 110.52 46.1265 110.329 45.711C110.138 45.2954 109.988 44.8434 109.879 44.3549L108.996 40.4109L109.682 40.2574L110.54 44.0923C110.635 44.5184 110.757 44.9168 110.906 45.2874C111.052 45.6475 111.229 45.9517 111.437 46.1997C111.656 46.4454 111.909 46.6235 112.195 46.734C112.492 46.8422 112.833 46.8532 113.217 46.7672C113.654 46.6695 114.043 46.457 114.384 46.1296C114.724 45.7918 115.012 45.3998 115.251 44.9536L113.985 39.2947L114.671 39.1413L116.324 46.5305L115.685 46.6735L115.434 45.5511Z" fill="white"/>
<path d="M124.45 41.0179C124.531 41.6194 124.516 42.1803 124.404 42.7006C124.29 43.2104 124.088 43.6623 123.797 44.0563C123.516 44.4383 123.156 44.7557 122.717 45.0085C122.277 45.2508 121.777 45.4099 121.218 45.4856C120.88 45.5313 120.583 45.5555 120.325 45.5582C120.068 45.5608 119.812 45.5364 119.558 45.4848L120.008 48.8091L119.311 48.9035L117.853 38.139L118.503 38.0511L118.657 39.1909C118.883 38.7949 119.189 38.4417 119.577 38.1312C119.976 37.8194 120.47 37.6234 121.061 37.5434C121.505 37.4833 121.914 37.53 122.289 37.6833C122.674 37.8247 123.011 38.0531 123.301 38.3685C123.601 38.6824 123.847 39.0683 124.038 39.526C124.238 39.9718 124.375 40.4691 124.45 41.0179ZM123.753 41.1122C123.687 40.6267 123.569 40.1914 123.399 39.8061C123.239 39.4193 123.04 39.0971 122.801 38.8393C122.561 38.5815 122.283 38.3934 121.966 38.2752C121.66 38.1555 121.328 38.1199 120.969 38.1685C120.715 38.2028 120.478 38.2779 120.258 38.3937C120.046 38.4976 119.849 38.6265 119.665 38.7803C119.482 38.9341 119.317 39.1068 119.171 39.2986C119.034 39.4783 118.909 39.6619 118.794 39.8493L119.472 44.8516C119.717 44.9151 119.974 44.9502 120.244 44.9566C120.512 44.9526 120.799 44.9298 121.105 44.8884C121.506 44.834 121.883 44.7186 122.235 44.5419C122.596 44.3533 122.901 44.1077 123.151 43.8053C123.398 43.4923 123.578 43.1133 123.69 42.6683C123.812 42.2219 123.833 41.7032 123.753 41.1122Z" fill="white"/>
<path d="M137.973 43.7481L137.27 43.7421L136.176 40.8573L130.889 40.8121L129.762 43.6779L129.059 43.6719L133.352 33.0692L133.863 33.0735L137.973 43.7481ZM131.134 40.2231L135.958 40.2643L133.599 33.9819L131.134 40.2231Z" fill="white"/>
<path d="M142.964 43.7696C142.661 43.8598 142.333 43.8953 141.982 43.8763C141.451 43.8474 141.067 43.6559 140.83 43.3018C140.604 42.9482 140.504 42.5268 140.53 42.0377L141.052 32.4351L141.754 32.4732L141.232 42.0758C141.213 42.4267 141.267 42.7122 141.394 42.9324C141.521 43.1526 141.77 43.2728 142.142 43.293C142.419 43.308 142.676 43.2847 142.914 43.2229L142.964 43.7696Z" fill="white"/>
<path d="M144.835 39.9683C144.701 40.9925 144.833 41.821 145.234 42.4536C145.634 43.0863 146.309 43.4652 147.259 43.5902C147.65 43.6416 148.02 43.6472 148.369 43.6072C148.73 43.558 149.089 43.4765 149.448 43.3625L149.534 43.9377C149.196 44.0544 148.815 44.1332 148.391 44.1741C147.965 44.2255 147.53 44.222 147.087 44.1637C146.527 44.0901 146.044 43.9245 145.638 43.6669C145.231 43.4093 144.903 43.0869 144.653 42.6996C144.415 42.3031 144.254 41.8575 144.169 41.3629C144.085 40.8578 144.079 40.3254 144.153 39.7658C144.228 39.1956 144.371 38.6827 144.581 38.227C144.791 37.7713 145.056 37.3925 145.375 37.0908C145.695 36.7785 146.063 36.553 146.479 36.4143C146.895 36.2756 147.351 36.2389 147.847 36.3042C148.702 36.4167 149.337 36.7795 149.75 37.3924C150.164 38.0054 150.307 38.7923 150.181 39.7531C150.161 39.9009 150.131 40.0474 150.091 40.1924C150.061 40.3388 150.025 40.4899 149.983 40.6455L144.835 39.9683ZM149.442 39.9782C149.622 39.0996 149.561 38.3826 149.258 37.8271C148.966 37.2731 148.455 36.9482 147.727 36.8523C147.315 36.7981 146.944 36.8407 146.614 36.9799C146.296 37.1099 146.019 37.299 145.782 37.5472C145.546 37.7953 145.352 38.0814 145.202 38.4053C145.052 38.7293 144.956 39.055 144.912 39.3823L149.442 39.9782Z" fill="white"/>
<path d="M154.408 41.0341L156.372 45.3391L155.637 45.187L153.945 41.4603L150.928 44.2133L150.193 44.0612L153.688 40.8853L151.789 36.6591L152.524 36.8112L154.148 40.4748L157.108 37.759L157.843 37.9111L154.408 41.0341Z" fill="white"/>
<path d="M162.687 42.7187L164.297 47.1685L163.576 46.9575L162.191 43.106L158.962 45.6058L158.241 45.3947L161.982 42.5121L160.431 38.1461L161.151 38.3571L162.474 42.1402L165.643 39.6729L166.364 39.884L162.687 42.7187Z" fill="white"/>
<path d="M180.803 42.6931C180.499 42.3636 180.152 42.0614 179.763 41.7867C179.378 41.5023 178.954 41.2524 178.49 41.037C177.834 40.7319 177.178 40.5625 176.525 40.5288C175.885 40.49 175.275 40.5765 174.695 40.7885C174.125 41.005 173.599 41.3417 173.116 41.7987C172.648 42.2504 172.254 42.8192 171.936 43.5049C171.622 44.181 171.44 44.8366 171.392 45.4716C171.343 46.1067 171.425 46.7024 171.636 47.2585C171.847 47.8147 172.181 48.3221 172.637 48.7807C173.098 49.2297 173.671 49.6134 174.357 49.9321C174.512 50.0039 174.693 50.0821 174.9 50.1666C175.112 50.2416 175.324 50.3165 175.535 50.3914C175.752 50.4567 175.958 50.5175 176.155 50.5738C176.366 50.6249 176.556 50.6599 176.723 50.679L178.311 47.26L178.92 47.5428L177.15 51.3528C176.662 51.3144 176.138 51.2056 175.575 51.0264C175.018 50.8613 174.502 50.6688 174.029 50.4489C173.256 50.0899 172.615 49.6509 172.104 49.1319C171.598 48.6032 171.227 48.0255 170.99 47.3986C170.757 46.762 170.664 46.0905 170.71 45.384C170.761 44.6678 170.957 43.9427 171.298 43.2087C171.644 42.4651 172.081 41.8403 172.61 41.3343C173.143 40.8188 173.735 40.4421 174.385 40.2042C175.041 39.9567 175.736 39.851 176.47 39.8871C177.215 39.9277 177.969 40.1253 178.732 40.4798C179.224 40.7087 179.687 40.9765 180.12 41.2833C180.557 41.5805 180.907 41.8897 181.168 42.2109L180.803 42.6931Z" fill="white"/>
<path d="M186.332 48.2751L186.107 48.1543C185.553 47.8573 185.002 47.7248 184.453 47.7568C183.919 47.7844 183.363 47.9639 182.787 48.2952L180.25 53.0254L179.631 52.6932L183.209 46.0202L183.787 46.3298L183.047 47.7094C183.514 47.3797 184.019 47.1917 184.564 47.1453C185.123 47.0946 185.674 47.2152 186.219 47.5071C186.294 47.5474 186.366 47.5923 186.436 47.642C186.511 47.6822 186.567 47.7243 186.604 47.7683L186.332 48.2751Z" fill="white"/>
<path d="M191.569 55.0395C191.291 55.4683 190.959 55.8431 190.573 56.164C190.202 56.4817 189.794 56.7186 189.35 56.8748C188.912 57.022 188.449 57.0706 187.961 57.0205C187.487 56.9673 187.014 56.787 186.54 56.4798C186.067 56.1725 185.705 55.8107 185.455 55.3944C185.219 54.9749 185.079 54.535 185.035 54.0747C184.997 53.6056 185.043 53.1338 185.173 52.6596C185.317 52.1822 185.529 51.7291 185.807 51.3003C186.085 50.8715 186.41 50.4982 186.781 50.1805C187.167 49.8597 187.58 49.6256 188.018 49.4784C188.462 49.3223 188.921 49.2708 189.394 49.324C189.882 49.3741 190.363 49.5528 190.836 49.86C191.31 50.1673 191.664 50.5306 191.9 50.9501C192.15 51.3665 192.294 51.8093 192.333 52.2785C192.377 52.7387 192.327 53.2075 192.182 53.6849C192.052 54.1592 191.848 54.6107 191.569 55.0395ZM190.98 54.6569C191.229 54.2727 191.415 53.879 191.537 53.4758C191.665 53.0636 191.711 52.6687 191.677 52.291C191.652 51.9191 191.543 51.569 191.35 51.2405C191.162 50.9031 190.881 50.6127 190.506 50.3692C190.131 50.1257 189.751 49.9872 189.366 49.9535C188.988 49.911 188.619 49.951 188.26 50.0736C187.91 50.202 187.573 50.4085 187.249 50.6931C186.93 50.9689 186.646 51.2988 186.397 51.6829C186.142 52.076 185.953 52.4742 185.831 52.8774C185.709 53.2807 185.661 53.6682 185.686 54.0401C185.72 54.4178 185.831 54.7753 186.018 55.1127C186.212 55.4411 186.496 55.7271 186.871 55.9706C187.246 56.2141 187.623 56.3571 188.002 56.3997C188.386 56.4333 188.753 56.3859 189.103 56.2575C189.462 56.1349 189.801 55.9358 190.119 55.6601C190.438 55.3844 190.725 55.05 190.98 54.6569Z" fill="white"/>
<path d="M195.718 60.9975C195.209 61.1157 194.711 61.1339 194.222 61.0522C193.742 60.9769 193.287 60.7732 192.857 60.441C192.503 60.1674 192.254 59.8538 192.11 59.5002C191.981 59.1447 191.934 58.7712 191.967 58.3797C192.015 57.9863 192.138 57.5834 192.336 57.1709C192.534 56.7585 192.786 56.3543 193.092 55.9583L195.564 52.761L196.12 53.191L193.717 56.2998C193.45 56.6452 193.221 56.9933 193.03 57.3441C192.846 57.6865 192.725 58.017 192.667 58.3357C192.618 58.6609 192.642 58.9691 192.74 59.2602C192.846 59.5579 193.056 59.8272 193.367 60.0682C193.721 60.3418 194.133 60.5055 194.603 60.5593C195.079 60.6047 195.566 60.5767 196.061 60.4753L199.608 55.888L200.164 56.3179L195.533 62.308L195.015 61.9074L195.718 60.9975Z" fill="white"/>
<path d="M204.414 64.5759C204.005 65.0242 203.565 65.3721 203.094 65.6196C202.63 65.8593 202.153 65.994 201.665 66.0238C201.191 66.0528 200.717 65.9801 200.241 65.8057C199.773 65.6234 199.331 65.342 198.914 64.9614C198.662 64.7316 198.453 64.5187 198.286 64.3228C198.118 64.1268 197.973 63.9148 197.85 63.6868L195.588 66.164L195.069 65.6901L202.393 57.6684L202.877 58.1101L202.101 58.9594C202.55 58.8788 203.018 58.8877 203.505 58.9862C203.999 59.0918 204.467 59.3458 204.907 59.7479C205.238 60.0495 205.464 60.3935 205.588 60.7799C205.726 61.1656 205.767 61.5708 205.711 61.9955C205.662 62.4274 205.524 62.8634 205.295 63.3034C205.081 63.7428 204.788 64.167 204.414 64.5759ZM203.895 64.102C204.226 63.7402 204.484 63.3704 204.67 62.9926C204.865 62.6219 204.984 62.2622 205.028 61.9134C205.073 61.5646 205.039 61.2307 204.926 60.9117C204.822 60.5998 204.636 60.3218 204.368 60.0777C204.18 59.9053 203.97 59.7716 203.74 59.6766C203.524 59.5808 203.299 59.5119 203.063 59.4698C202.827 59.4277 202.589 59.4122 202.349 59.4231C202.123 59.4334 201.901 59.4547 201.684 59.4872L198.28 63.2149C198.389 63.4437 198.527 63.6635 198.695 63.8745C198.87 64.0776 199.072 64.2833 199.3 64.4916C199.598 64.7645 199.929 64.9794 200.29 65.1364C200.666 65.2926 201.051 65.3694 201.442 65.3667C201.842 65.3561 202.248 65.251 202.661 65.0513C203.082 64.8588 203.493 64.5424 203.895 64.102Z" fill="white"/>
<path d="M211.207 76.9319L210.761 76.3886L212.274 73.6998L208.919 69.6131L205.997 70.5857L205.551 70.0425L216.44 66.5387L216.764 66.9338L211.207 76.9319ZM209.528 69.4232L212.589 73.1519L215.898 67.314L209.528 69.4232Z" fill="white"/>
<path d="M214.229 80.5666C213.965 80.3919 213.728 80.1641 213.517 79.8829C213.197 79.457 213.097 79.0395 213.216 78.6306C213.342 78.2301 213.601 77.8829 213.992 77.5889L221.685 71.818L222.107 72.3802L214.414 78.1512C214.133 78.3621 213.949 78.5868 213.862 78.8254C213.774 79.0639 213.842 79.3323 214.066 79.6305C214.232 79.852 214.415 80.0341 214.616 80.1767L214.229 80.5666Z" fill="white"/>
<path d="M218.403 79.6374C217.532 80.1925 216.982 80.8266 216.755 81.5397C216.527 82.2529 216.671 83.0137 217.186 83.8221C217.397 84.1544 217.631 84.4414 217.886 84.683C218.155 84.9279 218.449 85.1512 218.767 85.3528L218.381 85.7879C218.075 85.6043 217.77 85.3631 217.466 85.0643C217.153 84.7712 216.876 84.436 216.636 84.0588C216.333 83.5827 216.149 83.1062 216.085 82.6292C216.021 82.1523 216.057 81.6936 216.193 81.2533C216.344 80.8162 216.582 80.4061 216.906 80.0229C217.239 79.6339 217.643 79.2878 218.12 78.9845C218.605 78.6756 219.089 78.4552 219.574 78.3235C220.058 78.1917 220.518 78.1511 220.954 78.2015C221.399 78.2462 221.809 78.3833 222.182 78.6126C222.555 78.842 222.877 79.1677 223.146 79.5899C223.609 80.3174 223.739 81.0365 223.535 81.7472C223.331 82.458 222.82 83.0736 222.003 83.5943C221.877 83.6744 221.746 83.7456 221.609 83.8077C221.477 83.8788 221.338 83.9483 221.192 84.0162L218.403 79.6374ZM221.356 83.1732C222.145 82.7464 222.655 82.2386 222.886 81.6495C223.122 81.0695 223.043 80.4696 222.648 79.8498C222.425 79.4995 222.154 79.2428 221.836 79.0796C221.532 78.9196 221.209 78.8287 220.866 78.8068C220.524 78.7849 220.181 78.8206 219.836 78.9139C219.491 79.0072 219.18 79.1425 218.901 79.3199L221.356 83.1732Z" fill="white"/>
<path d="M224.068 88.2352L222.019 92.5004L221.665 91.8383L223.444 88.1521L219.398 87.5978L219.044 86.9356L223.722 87.5871L225.752 83.4224L226.106 84.0846L224.332 87.6777L228.313 88.2124L228.667 88.8745L224.068 88.2352Z" fill="white"/>
<path d="M227.456 94.4228L225.102 98.5279L224.797 97.8418L226.84 94.2947L222.845 93.4477L222.54 92.7616L227.158 93.7513L229.485 89.7452L229.79 90.4313L227.759 93.886L231.691 94.7086L231.996 95.3947L227.456 94.4228Z" fill="white"/>
<path d="M239.375 108.806C239.431 108.36 239.439 107.9 239.399 107.426C239.369 106.948 239.287 106.463 239.153 105.97C238.964 105.271 238.672 104.66 238.277 104.138C237.895 103.624 237.436 103.213 236.9 102.905C236.368 102.608 235.771 102.422 235.111 102.347C234.464 102.28 233.775 102.345 233.045 102.543C232.326 102.737 231.707 103.021 231.19 103.392C230.673 103.764 230.27 104.21 229.98 104.73C229.691 105.249 229.517 105.831 229.46 106.476C229.413 107.117 229.488 107.803 229.686 108.533C229.73 108.697 229.787 108.886 229.856 109.099C229.935 109.31 230.014 109.52 230.093 109.73C230.182 109.938 230.269 110.135 230.352 110.322C230.449 110.516 230.544 110.684 230.637 110.824L234.276 109.839L234.452 110.486L230.396 111.584C230.112 111.187 229.858 110.715 229.632 110.169C229.4 109.636 229.215 109.118 229.079 108.614C228.856 107.792 228.779 107.019 228.848 106.294C228.927 105.566 229.13 104.91 229.457 104.325C229.794 103.737 230.248 103.234 230.819 102.814C231.399 102.392 232.08 102.076 232.862 101.864C233.653 101.65 234.413 101.582 235.14 101.661C235.878 101.737 236.547 101.947 237.148 102.292C237.759 102.634 238.288 103.098 238.733 103.684C239.181 104.279 239.515 104.983 239.735 105.795C239.877 106.32 239.97 106.846 240.014 107.375C240.068 107.901 240.056 108.367 239.979 108.775L239.375 108.806Z" fill="white"/>
<path d="M238.601 116.377L238.548 116.127C238.418 115.512 238.163 115.005 237.785 114.607C237.419 114.216 236.923 113.908 236.298 113.681L231.048 114.795L230.902 114.107L238.309 112.536L238.445 113.177L236.914 113.501C237.467 113.645 237.937 113.91 238.323 114.296C238.723 114.691 238.986 115.19 239.115 115.794C239.132 115.878 239.145 115.962 239.152 116.048C239.17 116.131 239.174 116.201 239.164 116.257L238.601 116.377Z" fill="white"/>
<path d="M236.784 124.536C236.277 124.601 235.776 124.59 235.282 124.503C234.799 124.425 234.355 124.267 233.949 124.029C233.553 123.79 233.217 123.468 232.94 123.063C232.674 122.667 232.506 122.19 232.434 121.63C232.363 121.07 232.405 120.56 232.561 120.1C232.729 119.649 232.974 119.258 233.297 118.927C233.63 118.594 234.02 118.324 234.465 118.117C234.923 117.919 235.406 117.787 235.913 117.723C236.42 117.658 236.915 117.664 237.397 117.742C237.891 117.829 238.336 117.993 238.732 118.232C239.138 118.47 239.474 118.787 239.739 119.182C240.016 119.587 240.191 120.069 240.262 120.629C240.334 121.189 240.286 121.694 240.118 122.145C239.962 122.605 239.717 123.002 239.384 123.334C239.061 123.665 238.671 123.93 238.213 124.128C237.767 124.335 237.291 124.471 236.784 124.536ZM236.695 123.839C237.149 123.781 237.569 123.668 237.956 123.501C238.353 123.332 238.685 123.112 238.951 122.842C239.218 122.582 239.415 122.273 239.541 121.913C239.677 121.552 239.717 121.15 239.66 120.706C239.603 120.262 239.464 119.883 239.241 119.568C239.029 119.252 238.76 118.996 238.434 118.801C238.11 118.617 237.735 118.494 237.308 118.43C236.891 118.365 236.456 118.362 236.002 118.42C235.537 118.479 235.111 118.593 234.725 118.76C234.338 118.928 234.011 119.141 233.744 119.401C233.478 119.671 233.277 119.987 233.14 120.348C233.014 120.707 232.98 121.109 233.037 121.553C233.093 121.996 233.228 122.377 233.44 122.693C233.663 123.008 233.936 123.258 234.26 123.442C234.586 123.636 234.957 123.766 235.373 123.831C235.789 123.896 236.23 123.898 236.695 123.839Z" fill="white"/>
<path d="M234.926 131.585C234.507 131.273 234.171 130.904 233.918 130.478C233.665 130.063 233.526 129.584 233.502 129.042C233.482 128.595 233.56 128.202 233.737 127.864C233.925 127.536 234.179 127.258 234.5 127.031C234.831 126.813 235.218 126.647 235.661 126.531C236.103 126.416 236.575 126.347 237.075 126.324L241.112 126.145L241.144 126.847L237.218 127.022C236.781 127.041 236.368 127.091 235.977 127.173C235.597 127.254 235.267 127.375 234.986 127.537C234.706 127.709 234.486 127.927 234.327 128.19C234.169 128.463 234.099 128.797 234.116 129.19C234.136 129.637 234.277 130.057 234.54 130.451C234.813 130.844 235.149 131.197 235.547 131.509L241.34 131.252L241.371 131.954L233.806 132.29L233.777 131.636L234.926 131.585Z" fill="black"/>
<path d="M237.811 140.771C237.205 140.747 236.655 140.635 236.162 140.435C235.679 140.235 235.269 139.958 234.931 139.604C234.604 139.26 234.353 138.851 234.18 138.375C234.017 137.9 233.947 137.38 233.969 136.816C233.982 136.476 234.01 136.178 234.052 135.924C234.093 135.67 234.162 135.422 234.256 135.181L230.904 135.05L230.932 134.348L241.786 134.771L241.761 135.426L240.611 135.381C240.962 135.672 241.257 136.035 241.496 136.47C241.734 136.917 241.842 137.438 241.819 138.034C241.801 138.481 241.685 138.876 241.469 139.219C241.263 139.573 240.98 139.866 240.619 140.097C240.258 140.339 239.836 140.514 239.352 140.623C238.878 140.743 238.365 140.793 237.811 140.771ZM237.839 140.069C238.328 140.088 238.777 140.047 239.186 139.945C239.595 139.855 239.947 139.714 240.242 139.523C240.537 139.332 240.77 139.091 240.942 138.799C241.112 138.518 241.205 138.196 241.219 137.834C241.229 137.579 241.196 137.333 241.12 137.095C241.054 136.869 240.961 136.652 240.842 136.445C240.722 136.238 240.58 136.046 240.416 135.869C240.263 135.703 240.104 135.547 239.939 135.402L234.895 135.206C234.79 135.436 234.711 135.684 234.658 135.948C234.616 136.213 234.589 136.499 234.577 136.808C234.561 137.212 234.61 137.603 234.723 137.981C234.846 138.369 235.035 138.712 235.29 139.01C235.556 139.308 235.898 139.551 236.317 139.738C236.735 139.935 237.243 140.045 237.839 140.069Z" fill="black"/>
<defs>
<filter id="filter0_b_133_7598" x="21.0662" y="20.2217" width="234.751" height="234.751" filterUnits="userSpaceOnUse" color-interpolation-filters="sRGB">
<feFlood flood-opacity="0" result="BackgroundImageFix"/>
<feGaussianBlur in="BackgroundImageFix" stdDeviation="2.5"/>
<feComposite in2="SourceAlpha" operator="in" result="effect1_backgroundBlur_133_7598"/>
<feBlend mode="normal" in="SourceGraphic" in2="effect1_backgroundBlur_133_7598" result="shape"/>
</filter>
</defs>
</svg>
