<svg width="21" height="21" viewBox="0 0 21 21" fill="none" xmlns="http://www.w3.org/2000/svg">
<path d="M20.5574 2.67213L12.6885 10.541L20.4918 18.3443C21.1475 18.9344 21.1475 19.918 20.4918 20.5082C19.9016 21.1639 18.918 21.1639 18.3279 20.5082L10.459 12.7049L2.65574 20.5082C2.06557 21.1639 1.08197 21.1639 0.491803 20.5082C-0.163934 19.918 -0.163934 18.9344 0.491803 18.2787L8.29508 10.4754L0.491803 2.67213C-0.163934 2.08197 -0.163934 1.09836 0.491803 0.442623C1.08197 -0.147541 2.06557 -0.147541 2.72131 0.442623L10.5246 8.31147L18.3279 0.508197C18.918 -0.147541 19.9016 -0.147541 20.5574 0.508197C21.1475 1.09836 21.1475 2.08197 20.5574 2.67213Z" fill="white"/>
</svg>
