<svg width="17" height="16" viewBox="0 0 17 16" fill="none" xmlns="http://www.w3.org/2000/svg">
<path d="M9.42432 3H11.6743C11.8732 3 12.064 2.92098 12.2046 2.78033C12.3453 2.63968 12.4243 2.44891 12.4243 2.25V0.75C12.4243 0.551088 12.3453 0.360322 12.2046 0.21967C12.064 0.0790176 11.8732 0 11.6743 0H9.42432C8.42975 0 7.47593 0.395088 6.77267 1.09835C6.0694 1.80161 5.67432 2.75544 5.67432 3.75V6H4.17432C3.9754 6 3.78464 6.07902 3.64399 6.21967C3.50333 6.36032 3.42432 6.55109 3.42432 6.75V8.25C3.42432 8.44891 3.50333 8.63968 3.64399 8.78033C3.78464 8.92098 3.9754 9 4.17432 9H5.67432V14.25C5.67432 14.4489 5.75333 14.6397 5.89399 14.7803C6.03464 14.921 6.2254 15 6.42432 15H7.92432C8.12323 15 8.31399 14.921 8.45465 14.7803C8.5953 14.6397 8.67432 14.4489 8.67432 14.25V9H10.3393C10.5106 9.00499 10.6785 8.95115 10.815 8.84744C10.9514 8.74373 11.0483 8.59641 11.0893 8.43L11.4643 6.93C11.4921 6.8177 11.4936 6.70048 11.4686 6.58752C11.4436 6.47456 11.3928 6.36892 11.3201 6.27886C11.2475 6.1888 11.155 6.11677 11.0499 6.06839C10.9448 6.02001 10.83 5.99661 10.7143 6H8.67432V3.75C8.67432 3.55109 8.75333 3.36032 8.89399 3.21967C9.03464 3.07902 9.2254 3 9.42432 3Z" fill="black"/>
</svg>
