<svg width="16" height="16" viewBox="0 0 16 16" fill="none" xmlns="http://www.w3.org/2000/svg">
<g id="Icon">
<path id="primary" d="M9 3H11.25C11.4489 3 11.6397 2.92098 11.7803 2.78033C11.921 2.63968 12 2.44891 12 2.25V0.75C12 0.551088 11.921 0.360322 11.7803 0.21967C11.6397 0.0790176 11.4489 0 11.25 0H9C8.00544 0 7.05161 0.395088 6.34835 1.09835C5.64509 1.80161 5.25 2.75544 5.25 3.75V6H3.75C3.55109 6 3.36032 6.07902 3.21967 6.21967C3.07902 6.36032 3 6.55109 3 6.75V8.25C3 8.44891 3.07902 8.63968 3.21967 8.78033C3.36032 8.92098 3.55109 9 3.75 9H5.25V14.25C5.25 14.4489 5.32902 14.6397 5.46967 14.7803C5.61032 14.921 5.80109 15 6 15H7.5C7.69891 15 7.88968 14.921 8.03033 14.7803C8.17098 14.6397 8.25 14.4489 8.25 14.25V9H9.915C10.0863 9.00499 10.2542 8.95115 10.3907 8.84744C10.5271 8.74373 10.6239 8.59641 10.665 8.43L11.04 6.93C11.0678 6.8177 11.0693 6.70048 11.0443 6.58752C11.0192 6.47456 10.9684 6.36892 10.8958 6.27886C10.8232 6.1888 10.7307 6.11677 10.6256 6.06839C10.5205 6.02001 10.4056 5.99661 10.29 6H8.25V3.75C8.25 3.55109 8.32902 3.36032 8.46967 3.21967C8.61032 3.07902 8.80109 3 9 3Z" fill="white"/>
</g>
</svg>
