<svg width="16" height="16" viewBox="0 0 16 16" fill="none" xmlns="http://www.w3.org/2000/svg">
<g id="Icon" clip-path="url(#clip0_2332_386)">
<path id="Vector" fill-rule="evenodd" clip-rule="evenodd" d="M8 0C5.82734 0 5.5549 0.00920926 4.70162 0.0481423C3.85011 0.0869799 3.26856 0.222229 2.7597 0.420006C2.23363 0.62442 1.78749 0.89797 1.34271 1.34271C0.897964 1.78749 0.62442 2.23363 0.420006 2.7597C0.222229 3.26856 0.0869802 3.85011 0.0481422 4.70162C0.00920925 5.55491 0 5.82734 0 8.00006C0 10.1727 0.00920925 10.4451 0.0481422 11.2984C0.0869802 12.1499 0.222229 12.7315 0.420006 13.2403C0.62442 13.7664 0.897964 14.2126 1.34271 14.6573C1.78749 15.102 2.23363 15.3756 2.7597 15.5801C3.26856 15.7778 3.85011 15.913 4.70162 15.9519C5.5549 15.9908 5.82734 16 8 16C10.1727 16 10.4451 15.9908 11.2984 15.9519C12.1499 15.913 12.7314 15.7778 13.2403 15.5801C13.7664 15.3756 14.2125 15.102 14.6573 14.6573C15.102 14.2126 15.3756 13.7664 15.5801 13.2403C15.7778 12.7315 15.913 12.1499 15.9519 11.2984C15.9908 10.4451 16 10.1727 16 8.00006C16 5.82734 15.9908 5.55491 15.9519 4.70162C15.913 3.85011 15.7778 3.26856 15.5801 2.7597C15.3756 2.23363 15.102 1.78749 14.6573 1.34271C14.2125 0.89797 13.7664 0.62442 13.2403 0.420006C12.7314 0.222229 12.1499 0.0869799 11.2984 0.0481423C10.4451 0.00920926 10.1727 0 8 0ZM5.33334 8.00006C5.33334 9.4728 6.52724 10.6667 8 10.6667C9.4728 10.6667 10.6667 9.4728 10.6667 8.00006C10.6667 6.52724 9.4728 5.33334 8 5.33334C6.52724 5.33334 5.33334 6.52724 5.33334 8.00006ZM3.8919 8.00006C3.8919 5.73115 5.73115 3.8919 8 3.8919C10.2689 3.8919 12.1081 5.73115 12.1081 8.00006C12.1081 10.2688 10.2689 12.1081 8 12.1081C5.73115 12.1081 3.8919 10.2688 3.8919 8.00006ZM12.2704 4.68959C12.8007 4.68959 13.2305 4.2598 13.2305 3.72959C13.2305 3.19939 12.8007 2.76958 12.2704 2.76958C11.7403 2.76958 11.3104 3.19939 11.3104 3.72959C11.3104 4.2598 11.7403 4.68959 12.2704 4.68959Z" fill="white"/>
</g>
<defs>
<clipPath id="clip0_2332_386">
<rect width="16" height="16" fill="white"/>
</clipPath>
</defs>
</svg>
