<svg width="17" height="16" viewBox="0 0 17 16" fill="none" xmlns="http://www.w3.org/2000/svg">
<g clip-path="url(#clip0_2313_74)">
<path fill-rule="evenodd" clip-rule="evenodd" d="M8.42432 0C6.25166 0 5.97922 0.00920926 5.12593 0.0481423C4.27442 0.0869799 3.69288 0.222229 3.18402 0.420006C2.65794 0.62442 2.2118 0.89797 1.76703 1.34271C1.32228 1.78749 1.04874 2.23363 0.844322 2.7597C0.646545 3.26856 0.511297 3.85011 0.472459 4.70162C0.433526 5.55491 0.424316 5.82734 0.424316 8.00006C0.424316 10.1727 0.433526 10.4451 0.472459 11.2984C0.511297 12.1499 0.646545 12.7315 0.844322 13.2403C1.04874 13.7664 1.32228 14.2126 1.76703 14.6573C2.2118 15.102 2.65794 15.3756 3.18402 15.5801C3.69288 15.7778 4.27442 15.913 5.12593 15.9519C5.97922 15.9908 6.25166 16 8.42432 16C10.597 16 10.8694 15.9908 11.7227 15.9519C12.5742 15.913 13.1557 15.7778 13.6646 15.5801C14.1907 15.3756 14.6368 15.102 15.0816 14.6573C15.5264 14.2126 15.7999 13.7664 16.0044 13.2403C16.2021 12.7315 16.3374 12.1499 16.3762 11.2984C16.4151 10.4451 16.4243 10.1727 16.4243 8.00006C16.4243 5.82734 16.4151 5.55491 16.3762 4.70162C16.3374 3.85011 16.2021 3.26856 16.0044 2.7597C15.7999 2.23363 15.5264 1.78749 15.0816 1.34271C14.6368 0.89797 14.1907 0.62442 13.6646 0.420006C13.1557 0.222229 12.5742 0.0869799 11.7227 0.0481423C10.8694 0.00920926 10.597 0 8.42432 0ZM5.75766 8.00006C5.75766 9.4728 6.95156 10.6667 8.42432 10.6667C9.89712 10.6667 11.091 9.4728 11.091 8.00006C11.091 6.52724 9.89712 5.33334 8.42432 5.33334C6.95156 5.33334 5.75766 6.52724 5.75766 8.00006ZM4.31622 8.00006C4.31622 5.73115 6.15546 3.8919 8.42432 3.8919C10.6932 3.8919 12.5324 5.73115 12.5324 8.00006C12.5324 10.2688 10.6932 12.1081 8.42432 12.1081C6.15546 12.1081 4.31622 10.2688 4.31622 8.00006ZM12.6947 4.68959C13.225 4.68959 13.6548 4.2598 13.6548 3.72959C13.6548 3.19939 13.225 2.76958 12.6947 2.76958C12.1646 2.76958 11.7348 3.19939 11.7348 3.72959C11.7348 4.2598 12.1646 4.68959 12.6947 4.68959Z" fill="black"/>
</g>
<defs>
<clipPath id="clip0_2313_74">
<rect width="16" height="16" fill="white" transform="translate(0.424316)"/>
</clipPath>
</defs>
</svg>
