<svg width="193" height="20" viewBox="0 0 193 20" fill="none" xmlns="http://www.w3.org/2000/svg">
<g clip-path="url(#clip0_133_1109)">
<path d="M7.80588 0.614014H13.176L20.7609 19.6384H15.6192L14.3178 15.9799H6.66654L5.36269 19.6384H0.223389L7.80588 0.614014ZM8.33381 11.5896H12.6481L10.4922 5.57499L8.33381 11.5896Z" fill="black"/>
<path d="M27.7689 0.614014V14.7604H36.8541V19.3945H22.8579V0.614014H27.7689Z" fill="black"/>
<path d="M52.5691 0.614014V5.24816H44.2205V7.68718H51.3414V12.3213H44.2205V15.0043H52.5691V19.6384H39.3096V0.614014H52.5691Z" fill="black"/>
<path d="M110.317 17.6097C109.276 18.7573 107.732 19.3679 105.596 19.3822L105.571 19.3822L105.567 19.3822C104.259 19.3921 102.962 19.1555 101.743 18.685C100.178 18.0613 98.8584 16.9527 97.9792 15.5249L97.974 15.5166L97.9686 15.5084C97.9052 15.4141 97.8463 15.3147 97.7864 15.2072L97.7864 15.2072L97.7837 15.2023C97.5371 14.771 97.3258 14.3208 97.1517 13.8561C97.1405 13.8079 97.1262 13.7727 97.1195 13.7564C97.1161 13.7482 97.1123 13.7394 97.1094 13.733C97.0787 13.6356 97.0473 13.5252 97.0174 13.4089C96.8888 12.8642 96.789 12.3133 96.7186 11.7583L96.7186 11.7583L96.718 11.7541C96.7012 11.6304 96.687 11.5169 96.6727 11.3914L96.6727 11.3914L96.6722 11.3871C96.6249 11.0024 96.5892 10.6558 96.5653 10.4053C96.5533 10.2802 96.5443 10.1793 96.5383 10.11L96.5316 10.0305L96.531 10.023V9.98462V9.98391V9.98319V9.98248V9.98176V9.98105V9.98034V9.97962V9.97891V9.97819V9.97748V9.97676V9.97605V9.97533V9.97462V9.9739V9.97319V9.97248V9.97176V9.97105V9.97033V9.96962V9.9689V9.96819V9.96747V9.96676V9.96604V9.96533V9.96462V9.9639V9.96319V9.96247V9.96176V9.96104V9.96033V9.95961V9.9589V9.95819V9.95747V9.95676V9.95604V9.95533V9.95461V9.9539V9.95318V9.95247V9.95175V9.95104V9.95033V9.94961V9.9489V9.94818V9.94747V9.94675V9.94604V9.94532V9.94461V9.9439V9.94318V9.94247V9.94175V9.94104V9.94032V9.93961V9.9389V9.93818V9.93747V9.93675V9.93604V9.93532V9.93461V9.9339V9.93318V9.93247V9.93175V9.93104V9.93032V9.92961V9.9289V9.92818V9.92747V9.92675V9.92604V9.92532V9.92461V9.9239V9.92318V9.92247V9.92175V9.92104V9.92033V9.91961V9.9189V9.91818V9.91747V9.91675V9.91604V9.91533V9.91461V9.9139V9.91319V9.91247V9.91176V9.91104V9.91033V9.90961V9.9089V9.90819V9.90747V9.90676V9.90604V9.90533V9.90462V9.9039V9.90319V9.90248V9.90176V9.90105V9.90033V9.89962V9.89891V9.89819V9.89748V9.89677V9.89605V9.89534V9.89462V9.89391V9.8932V9.89248V9.89177V9.89106V9.89034V9.88963V9.88892V9.8882V9.88749V9.88677V9.88606V9.88535V9.88463V9.88392V9.88321V9.88249V9.88178V9.88107V9.88035V9.87964V9.87893V9.87821V9.8775V9.87679V9.87607V9.87536V9.87465V9.87393V9.87322V9.87251V9.87179V9.87108V9.87037V9.86965V9.86894V9.86823V9.86751V9.8668V9.86609V9.86538V9.86466V9.86395V9.86324V9.86252V9.86181V9.8611V9.86038V9.85967V9.85896V9.85825V9.85753V9.85682V9.85611V9.85539V9.85468V9.85397V9.85326V9.85254V9.85183V9.85112V9.85041V9.84969V9.84898V9.84827V9.84756V9.84684V9.84613V9.84542V9.8447V9.84399V9.84328V9.84257V9.84186V9.84114V9.84043V9.83972V9.83901V9.83829V9.83758V9.83687V9.83616V9.83544V9.83473V9.83402V9.83331V9.8326V9.83188V9.83117V9.83046V9.82975V9.82904V9.82832V9.82761V9.8269V9.82619V9.82548V9.82476V9.82405V9.82334V9.82263V9.82192V9.82121V9.82049V9.81978V9.81907V9.81836V9.81765V9.81694V9.81622V9.81551V9.8148V9.81409V9.81338V9.81267V9.81196V9.81124V9.81053V9.80982V9.80911V9.8084V9.80769V9.80698V9.80626V9.80555V9.80484V9.80413V9.80342V9.80271V9.802V9.80129V9.80058V9.79987V9.79916V9.79844V9.79773V9.79702V9.79631V9.7956V9.79489V9.79418V9.79347V9.79276V9.79205V9.79134V9.79063V9.78992V9.78921V9.7885V9.78778V9.78707V9.78636V9.78565V9.78494V9.78423V9.78352V9.78281V9.7821V9.78139V9.78068V9.77997V9.77926V9.77855V9.77784V9.77713V9.77642V9.77571V9.775V9.77429V9.77358V9.77287V9.77216V9.77145V9.77074V9.77003V9.76932V9.76861V9.76791V9.7672V9.76649V9.76578V9.76507V9.76436V9.76365V9.76294V9.76223V9.76152V9.76081V9.7601V9.75939V9.75868V9.75797V9.75727V9.75656V9.75585V9.75514V9.75443V9.75372V9.75301V9.7523V9.75159V9.75089V9.75018V9.74947V9.74876V9.74805V9.74734V9.74663V9.74593V9.74522V9.74451V9.7438V9.74309V9.74238V9.74168V9.74097V9.74026V9.73955V9.73884V9.73814V9.73743V9.73672V9.73601V9.7353V9.7346V9.73389V9.73318V9.73247V9.73176V9.73106V9.73035V9.72964V9.72893V9.72823V9.72752V9.72681V9.7261V9.7254V9.72469V9.72398V9.72327V9.72257V9.72186V9.72115V9.72045V9.71974V9.71903V9.71832V9.71762V9.71691V9.7162V9.7155V9.71479V9.71408V9.71338V9.71267V9.71196V9.71126V9.71055V9.70984V9.70914V9.70843V9.70773V9.70702V9.70631V9.70561V9.7049V9.70419V9.70349V9.70278V9.70208V9.70137V9.70066V9.69996V9.69925V9.69855V9.69784V9.69714V9.69643V9.69572V9.69502V9.69431V9.69361V9.6929V9.6922V9.69149V9.69079V9.69008V9.68938V9.68867V9.68797V9.68726V9.68656V9.68585V9.68515V9.68444V9.68374V9.68303V9.68233V9.68162V9.68092V9.68021V9.67951V9.6788V9.6781V9.67739V9.67669V9.67599V9.67528V9.67458V9.67387V9.67317V9.67247V9.67176V9.67106V9.67035V9.66965V9.66895V9.66824V9.66754V9.66683V9.66613V9.66543V9.66472V9.66402V9.66332V9.66261V9.66191V9.66121V9.6605V9.6598V9.6591V9.65839V9.65769V9.65699V9.65628V9.65558V9.65488V9.65418V9.65347V9.65277V9.65207V9.65137V9.65066V9.64996V9.64926V9.64856V9.64785V9.64715V9.64645V9.64575V9.64504V9.64434V9.64364V9.64294V9.64224V9.64153V9.64083V9.64013V9.63943V9.63873V9.63803V9.63732V9.63662V9.63592V9.63522V9.63452V9.63382V9.63312V9.63241V9.63171V9.63101V9.63031V9.62961V9.62891V9.62821V9.62751V9.62681V9.62611V9.62541V9.62471V9.62401V9.6233V9.6226V9.6219V9.6212C96.531 9.4942 96.5318 9.40396 96.5415 9.33021L96.5441 9.31011L96.5451 9.28986C96.5781 8.62527 96.67 7.96485 96.8197 7.31627C96.8339 7.25716 96.8455 7.21237 96.8578 7.16449C96.8684 7.12339 96.8796 7.08001 96.8935 7.02332C96.9678 6.74512 97.0535 6.4759 97.151 6.21082L97.1516 6.20922C97.5513 5.11046 98.1825 4.10877 99.0032 3.27113L99.0033 3.27103C99.8339 2.42281 100.842 1.76618 101.957 1.34788L101.957 1.34788L101.959 1.34721C103.27 0.84959 104.665 0.604804 106.069 0.626027L106.069 0.626084H106.076H106.103V0.626113L106.109 0.626054C107.397 0.61199 108.68 0.800197 109.91 1.18368C110.872 1.48644 111.762 1.97678 112.528 2.62425L110.404 5.55289C109.887 5.16319 109.31 4.85671 108.694 4.64576L108.694 4.64568L108.685 4.64297C107.851 4.37332 106.976 4.24398 106.099 4.26023H106.081C105.264 4.24532 104.451 4.38728 103.688 4.67843L103.688 4.6784L103.682 4.6807C102.999 4.95106 102.387 5.37118 101.889 5.90997C101.396 6.43597 101.024 7.06252 100.799 7.74619C100.557 8.46526 100.438 9.21961 100.447 9.97787V10.0242C100.441 10.7799 100.562 11.5312 100.805 12.2474L100.805 12.2474L100.806 12.2523C101.041 12.9208 101.403 13.5374 101.874 14.0679L101.879 14.0734L101.884 14.0788C102.377 14.601 102.973 15.0155 103.634 15.2962L103.635 15.2965C104.372 15.6077 105.167 15.7615 105.968 15.748H105.986C106.842 15.7625 107.694 15.6236 108.501 15.3379C109.233 15.1159 109.851 14.6197 110.223 13.9526L110.287 13.8391V13.709V13.2968V12.7968H109.787H106.603V9.89438H113.456V19.1383H111.326L111.185 17.8894L111.06 16.7907L110.317 17.6097Z" fill="black" stroke="black"/>
<path d="M121.314 13.5408V18.8945H117.403V1.11401H124.898C127.311 1.11401 129.085 1.66745 130.294 2.70132C131.494 3.72733 132.116 5.1787 132.118 7.12661C132.118 8.50166 131.808 9.61375 131.221 10.4926C130.602 11.3974 129.71 12.084 128.671 12.4526L128.069 12.6663L128.421 13.1993L132.182 18.8945H127.882L124.519 13.2838L124.373 13.0408H124.09H121.814H121.314V13.5408ZM121.813 4.50426L121.314 4.50505V5.00426V9.3945V9.8945H121.814H124.895C125.3 9.89835 125.705 9.86857 126.105 9.80547L126.105 9.80565L126.118 9.8032C126.497 9.73292 126.859 9.58746 127.18 9.37538C127.512 9.16466 127.776 8.8626 127.94 8.50526L127.941 8.50316C128.131 8.08278 128.222 7.62453 128.207 7.16367V7.14572C128.207 6.19979 127.898 5.42032 127.153 5.00234L127.145 4.99755L127.136 4.9931C126.442 4.63846 125.667 4.46848 124.887 4.4994L121.813 4.50426Z" fill="black" stroke="black"/>
<path d="M135.082 10.0093H135.082V10.004V9.97722H135.082L135.082 9.97122C135.066 8.68739 135.282 7.41107 135.717 6.20211C136.122 5.10491 136.753 4.10356 137.57 3.26234C138.393 2.41719 139.392 1.76003 140.497 1.33682L140.497 1.33666C141.773 0.846761 143.132 0.605438 144.499 0.625938L144.499 0.625994H144.507H144.536V0.626062L144.545 0.625927C145.902 0.603637 147.251 0.844852 148.515 1.33596L148.515 1.33599L148.52 1.33809C149.626 1.75264 150.627 2.40265 151.453 3.2422C152.279 4.08175 152.909 5.09047 153.3 6.19738L153.3 6.19742L153.304 6.20729C153.757 7.4104 153.982 8.68665 153.966 9.97113H153.966V9.97722L153.966 10.004L153.966 10.0093C153.98 11.3033 153.755 12.5889 153.303 13.8026L153.303 13.8026L153.3 13.8092C152.905 14.9177 152.273 15.9286 151.447 16.7725C150.622 17.6159 149.623 18.2725 148.519 18.6975C147.249 19.1722 145.901 19.4045 144.545 19.3822L144.545 19.3821H144.536H144.507V19.382L144.499 19.3822C143.134 19.4027 141.777 19.1707 140.497 18.6981C139.394 18.2594 138.397 17.5945 137.572 16.7472C136.762 15.8988 136.131 14.8984 135.717 13.8048C135.283 12.5862 135.068 11.3016 135.082 10.0093ZM139.347 12.2588L139.348 12.2599C139.575 12.9417 139.936 13.5718 140.41 14.1137L140.41 14.1138L140.419 14.1231C140.896 14.6422 141.482 15.0519 142.134 15.324L142.134 15.324L142.138 15.3259C142.854 15.6163 143.621 15.7598 144.393 15.7479H144.415C145.187 15.7598 145.954 15.6163 146.669 15.3259L146.669 15.3259L146.674 15.324C147.326 15.0519 147.911 14.6422 148.389 14.1231L148.389 14.1232L148.397 14.1137C148.871 13.5718 149.232 12.9417 149.46 12.2599L149.46 12.2588C149.701 11.5308 149.821 10.7684 149.815 10.0019V9.97999C149.823 9.22135 149.703 8.46674 149.46 7.74769C149.235 7.07079 148.872 6.44763 148.394 5.9174C147.921 5.38263 147.334 4.96121 146.675 4.68449L146.675 4.68446L146.669 4.68223C145.954 4.39182 145.187 4.24828 144.415 4.26014H144.386C143.613 4.24828 142.846 4.39182 142.131 4.68223L142.131 4.6822L142.125 4.68449C141.466 4.96121 140.879 5.38262 140.406 5.91737C139.928 6.44762 139.565 7.07078 139.34 7.74769C139.097 8.46767 138.977 9.22331 138.985 9.98296L138.986 10.0475L138.993 10.0706C138.994 10.8139 139.113 11.5525 139.347 12.2588Z" fill="black" stroke="black"/>
<path d="M156.935 10.8902L156.936 10.8902V10.8774V1.11401H160.847V10.9729C160.825 11.7397 160.936 12.5044 161.173 13.2344L161.176 13.2436L161.179 13.2528C161.384 13.8077 161.699 14.3158 162.105 14.747L162.118 14.7609L162.132 14.7737C162.525 15.1323 162.995 15.3968 163.506 15.5473L163.51 15.5484C163.999 15.6883 164.505 15.7596 165.014 15.7604H165.015H165.041C165.552 15.7626 166.061 15.6911 166.552 15.5478C167.061 15.3997 167.527 15.1315 167.909 14.7657L167.909 14.7658L167.918 14.7572C168.343 14.3307 168.664 13.8127 168.857 13.2432C169.114 12.5144 169.235 11.7448 169.213 10.9725V1.11401H173.369V10.8774H173.369L173.37 10.8892C173.401 12.2066 173.185 13.5183 172.734 14.7576L172.734 14.759C172.377 15.7491 171.8 16.6472 171.046 17.3868C170.312 18.0714 169.433 18.5837 168.472 18.8858L168.47 18.8863C167.402 19.2265 166.285 19.394 165.163 19.3823V19.3823H165.157L165.128 19.3823L165.124 19.3823C163.992 19.3925 162.866 19.2251 161.788 18.8863C160.837 18.58 159.967 18.0681 159.24 17.3877C158.487 16.6439 157.905 15.7471 157.535 14.7592C157.105 13.5152 156.902 12.205 156.935 10.8902Z" fill="black" stroke="black"/>
<path d="M181.472 14.7604V19.1384H177.316V1.11401H184.489C187.152 1.11401 189.073 1.69747 190.337 2.78136C191.588 3.85458 192.257 5.45865 192.276 7.68197V7.74572C192.276 9.9802 191.616 11.5743 190.37 12.6243C189.104 13.6904 187.209 14.2619 184.605 14.2604H184.605H181.972H181.472V14.7604ZM184.626 4.74824L184.626 4.74816H184.617H181.972H181.472V5.24816V10.1262V10.6262H181.972H184.617C185.734 10.6262 186.654 10.4557 187.305 10.0439C188.039 9.57953 188.344 8.74052 188.365 7.72451L188.366 7.72451V7.71401V7.68718C188.366 6.6888 188.053 5.86703 187.308 5.38848C186.644 4.96176 185.729 4.76851 184.626 4.74824Z" fill="black" stroke="black"/>
<path d="M90.0937 2.80908L83.1325 5.50908L82.3369 6.93103L89.502 3.78713L90.0937 2.80908Z" fill="black"/>
<path d="M88.704 14.7529L84.3333 16.4285L84.8685 17.3602L89.1239 15.4285L88.704 14.7529Z" fill="black"/>
<path d="M85.8972 0.562744L85.5977 1.10177L86.8377 0.562744H85.8972Z" fill="black"/>
<path d="M74.6833 3.5896L79.0196 1.66033L78.4205 0.584717L73.9319 2.34325L74.6833 3.5896Z" fill="black"/>
<path d="M91.449 0.562744H90.4545L84.6743 2.75055L83.9868 3.98225L91.3778 0.679813L91.449 0.562744Z" fill="black"/>
<path d="M73.7427 17.7577L81.1189 14.4333L82.1404 12.6577L75.2847 15.2626L73.7427 17.7577Z" fill="black"/>
<path d="M86.4057 11.0359L82.1602 12.6481L82.7617 13.6944L86.8968 11.8286L86.4057 11.0359Z" fill="black"/>
<path d="M88.316 5.75537L78.2633 9.52367L78.5457 9.98952L77.6396 11.4554L87.5524 7.01879L88.316 5.75537Z" fill="black"/>
<path d="M87.562 12.9041L83.2551 14.5553L83.815 15.526L88.0138 13.6333L87.562 12.9041Z" fill="black"/>
<path d="M89.8162 16.5481L85.3718 18.2359L85.858 19.0847L90.1723 17.1262L89.8162 16.5481Z" fill="black"/>
<path d="M78.1306 19.6359L78.742 18.5701L75.9624 19.6359H78.1306Z" fill="black"/>
<path d="M75.7561 5.36994L80.0532 3.50652L79.4541 2.43823L75.0293 4.16262L75.7561 5.36994Z" fill="black"/>
<path d="M90.8842 18.2773L87.314 19.6359H91.7264L90.8842 18.2773Z" fill="black"/>
<path d="M72.9447 19.0455L72.5101 18.3431L65.4629 15.6406L66.5605 17.5504L71.1866 19.6357H72.5788H73.3106H74.7028L79.3289 17.5504L80.4265 15.6406L73.3793 18.3431L72.9447 19.0455Z" fill="black"/>
<path d="M76.8439 7.17252L81.0526 5.29202L80.51 4.32617L76.1294 5.98471L76.8439 7.17252Z" fill="black"/>
<path d="M77.8802 8.88696L82.0398 7.06013L81.5217 6.1333L77.2246 7.79915L77.8802 8.88696Z" fill="black"/>
<path d="M76.9715 12.536L75.675 14.6335L85.7916 10.0409L85.7597 9.98964L86.4325 8.875L76.9715 12.536Z" fill="black"/>
<path d="M56.3874 3.78713L63.5525 6.93103L62.7569 5.50908L55.7957 2.80908L56.3874 3.78713Z" fill="black"/>
<path d="M56.7656 15.4285L61.021 17.3602L61.5563 16.4285L57.1831 14.7529L56.7656 15.4285Z" fill="black"/>
<path d="M59.9895 0.562744H59.0515L60.2915 1.10177L59.9895 0.562744Z" fill="black"/>
<path d="M71.9576 2.34325L67.469 0.584717L66.8699 1.66033L71.2062 3.5896L71.9576 2.34325Z" fill="black"/>
<path d="M61.9024 3.98225L61.2148 2.75055L55.4347 0.562744H54.4402L54.5114 0.679813L61.9024 3.98225Z" fill="black"/>
<path d="M70.6047 15.2626L63.749 12.6577L64.7705 14.4333L72.1467 17.7577L70.6047 15.2626Z" fill="black"/>
<path d="M58.9927 11.8286L63.1277 13.6944L63.7293 12.6481L59.4838 11.0359L58.9927 11.8286Z" fill="black"/>
<path d="M57.5735 5.75537L58.3371 7.01879L68.2499 11.4554L67.3438 9.98952L67.6262 9.52367L57.5735 5.75537Z" fill="black"/>
<path d="M57.8755 13.6333L62.0743 15.526L62.6342 14.5553L58.3273 12.9041L57.8755 13.6333Z" fill="black"/>
<path d="M55.7146 17.1262L60.0313 19.0847L60.5175 18.2359L56.0731 16.5481L55.7146 17.1262Z" fill="black"/>
<path d="M67.7586 19.6359H69.9268L67.1472 18.5701L67.7586 19.6359Z" fill="black"/>
<path d="M72.9446 0.709087L73.5781 1.76031L76.2792 0.562744H73.033H72.8562H69.6101L72.3111 1.76031L72.9446 0.709087Z" fill="black"/>
<path d="M70.8601 4.16262L66.4353 2.43823L65.8362 3.50652L70.1333 5.36994L70.8601 4.16262Z" fill="black"/>
<path d="M54.1628 19.6359H58.5753L55.0026 18.2773L54.1628 19.6359Z" fill="black"/>
<path d="M69.7599 5.98471L65.3769 4.32617L64.8367 5.29202L69.0454 7.17252L69.7599 5.98471Z" fill="black"/>
<path d="M68.6648 7.79915L64.3677 6.1333L63.8472 7.06013L68.0092 8.88696L68.6648 7.79915Z" fill="black"/>
<path d="M70.2142 14.6335L68.9177 12.536L59.4568 8.875L60.1296 9.98964L60.0977 10.0409L70.2142 14.6335Z" fill="black"/>
</g>
<defs>
<clipPath id="clip0_133_1109">
<rect width="193" height="20" fill="white" transform="translate(0 0.00415039)"/>
</clipPath>
</defs>
</svg>
