<svg width="210" height="22" viewBox="0 0 210 22" fill="none" xmlns="http://www.w3.org/2000/svg">
<g clip-path="url(#clip0_357_3896)">
<path d="M8.49355 0.670654H14.3367L22.5897 21.5975H16.9951L15.579 17.5731H7.25385L5.83515 21.5975H0.243164L8.49355 0.670654ZM9.06797 12.7438H13.7622L11.4164 6.12773L9.06797 12.7438Z" fill="white"/>
<path d="M30.2146 0.670654V16.2316H40.1001V21.3292H24.8711V0.670654H30.2146Z" fill="white"/>
<path d="M57.1999 0.670654V5.76822H48.116V8.45114H55.8641V13.5487H48.116V16.4999H57.1999V21.5975H42.7725V0.670654H57.1999Z" fill="white"/>
<path d="M123.993 10.3292V21.5974H120.645L120.437 19.7355C119.173 21.144 117.327 21.8496 114.898 21.8657H114.869C113.377 21.8771 111.897 21.604 110.506 21.0609C108.694 20.3313 107.164 19.0337 106.146 17.3611C106.066 17.2404 105.993 17.117 105.924 16.9909C105.633 16.4757 105.384 15.9373 105.181 15.3811C105.181 15.3516 105.163 15.3221 105.152 15.2926C105.112 15.1665 105.072 15.0243 105.034 14.8767C104.889 14.2571 104.777 13.6302 104.698 12.9987C104.679 12.8592 104.663 12.7304 104.647 12.5882C104.543 11.7296 104.489 11.0428 104.489 11.0428V10.9784C104.489 10.8443 104.489 10.7101 104.489 10.5787C104.489 10.4472 104.489 10.3104 104.505 10.187C104.543 9.42261 104.647 8.66308 104.818 7.9172C104.845 7.80452 104.874 7.69451 104.901 7.58451C104.986 7.25988 105.085 6.94598 105.197 6.63744C105.659 5.35489 106.388 4.18596 107.335 3.20866C108.294 2.21799 109.459 1.45135 110.747 0.963052C112.238 0.390998 113.823 0.109635 115.419 0.134029H115.449C116.908 0.117929 118.361 0.333432 119.753 0.772567C121.031 1.17889 122.199 1.87365 123.168 2.80354L120.229 6.90037C119.61 6.33379 118.883 5.90013 118.091 5.62598C117.238 5.34756 116.345 5.21425 115.449 5.23159H115.419C114.598 5.21581 113.782 5.35975 113.015 5.65549C112.347 5.92283 111.748 6.3383 111.262 6.87085C110.778 7.39196 110.414 8.01273 110.193 8.68989C109.949 9.42382 109.829 10.1938 109.838 10.9677V11.024C109.832 11.7946 109.954 12.5607 110.199 13.2911C110.43 13.9587 110.788 14.5747 111.254 15.1048C111.738 15.6236 112.324 16.0357 112.975 16.3148C113.708 16.6279 114.499 16.7824 115.297 16.7682H115.326C116.198 16.7837 117.067 16.64 117.888 16.3443C118.556 16.1429 119.119 15.6875 119.456 15.0752V14.6218H115.449V10.3292H123.993Z" fill="white"/>
<path d="M138.837 21.3292L135.019 14.8902H132.543V21.3292H127.199V0.670654H135.898C138.6 0.670654 140.676 1.29667 142.124 2.5487C143.572 3.80074 144.297 5.56253 144.298 7.83407C144.298 9.43131 143.942 10.7683 143.23 11.845C142.491 12.9381 141.425 13.7668 140.187 14.2114L144.835 21.3292H138.837ZM132.543 5.49992V10.3292H135.898C136.31 10.3333 136.721 10.3028 137.127 10.238C137.47 10.1737 137.797 10.0405 138.087 9.84627C138.361 9.67108 138.58 9.41939 138.714 9.12187C138.888 8.73367 138.971 8.31041 138.955 7.88505V7.85553C138.955 6.92992 138.664 6.3048 138.087 5.97748C137.411 5.62881 136.657 5.4624 135.898 5.49456L132.543 5.49992Z" fill="white"/>
<path d="M146.436 11.0001V10.9705C146.419 9.49184 146.664 8.02183 147.16 6.62956C147.627 5.34954 148.355 4.18163 149.298 3.20078C150.248 2.21373 151.402 1.4465 152.678 0.952489C154.131 0.388418 155.678 0.110598 157.236 0.134199H157.268C158.815 0.108513 160.352 0.386476 161.794 0.952489C163.071 1.43653 164.227 2.19562 165.182 3.17638C166.136 4.15715 166.864 5.33581 167.316 6.62956C167.834 8.01705 168.09 9.48902 168.072 10.9705V11.0001C168.088 12.491 167.832 13.9722 167.316 15.3705C166.859 16.665 166.129 17.8451 165.176 18.83C164.223 19.8149 163.069 20.5814 161.794 21.0771C160.348 21.624 158.812 21.8916 157.268 21.8659H157.236C155.681 21.8896 154.135 21.6221 152.678 21.0771C151.404 20.5657 150.252 19.7894 149.298 18.7993C148.364 17.8112 147.638 16.6454 147.16 15.3705C146.666 13.9675 146.421 12.4882 146.436 11.0001ZM151.78 11.0001C151.773 11.7836 151.894 12.563 152.138 13.3074C152.363 13.988 152.72 14.6172 153.188 15.1586C153.654 15.671 154.226 16.0756 154.863 16.3444C155.575 16.6366 156.338 16.7808 157.107 16.7683H157.139C157.908 16.7808 158.672 16.6366 159.384 16.3444C160.021 16.0756 160.593 15.671 161.059 15.1586C161.527 14.6172 161.884 13.988 162.109 13.3074C162.353 12.563 162.474 11.7836 162.467 11.0001V10.9705C162.476 10.1965 162.355 9.42645 162.109 8.69273C161.888 8.01908 161.531 7.39876 161.059 6.87103C160.599 6.34399 160.026 5.92846 159.384 5.65566C158.672 5.36346 157.908 5.21926 157.139 5.23176H157.099C156.33 5.21926 155.567 5.36346 154.855 5.65566C154.212 5.92846 153.64 6.34399 153.18 6.87103C152.708 7.39876 152.351 8.01908 152.13 8.69273C151.884 9.42645 151.763 10.1965 151.772 10.9705L151.78 11.0001Z" fill="white"/>
<path d="M170.215 11.9604V0.670654H175.559V12.0731C175.536 12.8563 175.648 13.6375 175.887 14.3831C176.084 14.9239 176.388 15.4193 176.78 15.8399C177.146 16.178 177.585 16.4276 178.062 16.5697C178.546 16.7095 179.047 16.7809 179.55 16.7816H179.58C180.084 16.784 180.586 16.7126 181.07 16.5697C181.541 16.4315 181.97 16.1811 182.323 15.8399C182.728 15.4294 183.033 14.9309 183.216 14.3831C183.476 13.6418 183.597 12.8587 183.574 12.0731V0.670654H189.184V11.9604C189.22 13.4781 188.974 14.9891 188.46 16.4168C188.043 17.586 187.369 18.646 186.489 19.5182C185.629 20.3298 184.599 20.9368 183.475 21.2943C182.257 21.6862 180.984 21.8792 179.705 21.8658H179.673C178.385 21.8775 177.102 21.6846 175.874 21.2943C174.76 20.9319 173.741 20.3253 172.889 19.5182C172.01 18.6415 171.331 17.5832 170.899 16.4168C170.408 14.9841 170.177 13.4749 170.215 11.9604Z" fill="white"/>
<path d="M200.74 0.670654C203.706 0.670654 205.944 1.32618 207.457 2.63724C208.969 3.94829 209.736 5.88358 209.757 8.44309V8.51553C209.757 11.0858 209.001 13.0148 207.489 14.3026C205.976 15.5904 203.769 16.2334 200.865 16.2316H198.001V21.5975H192.391V0.670654H200.74ZM204.414 8.45114C204.414 7.46382 204.113 6.7752 203.513 6.38528C202.913 5.99537 202.035 5.78968 200.879 5.76822H198.001V11.1341H200.879C202.056 11.1341 202.934 10.9489 203.513 10.5787C204.092 10.2085 204.392 9.5091 204.414 8.48065V8.45114Z" fill="white"/>
<path d="M98.0289 3.08545L90.4545 6.05545L89.5889 7.61959L97.385 4.16131L98.0289 3.08545Z" fill="white"/>
<path d="M96.5174 16.2236L91.7617 18.0668L92.3442 19.0917L96.9743 16.9668L96.5174 16.2236Z" fill="white"/>
<path d="M93.4636 0.614502L93.1377 1.20743L94.4869 0.614502H93.4636Z" fill="white"/>
<path d="M81.2619 3.9438L85.9802 1.8216L85.3283 0.638428L80.4443 2.57282L81.2619 3.9438Z" fill="white"/>
<path d="M99.5042 0.614502H98.4222L92.1329 3.02109L91.3848 4.37596L99.4268 0.743277L99.5042 0.614502Z" fill="white"/>
<path d="M80.2383 19.5289L88.2642 15.8721L89.3757 13.9189L81.9161 16.7843L80.2383 19.5289Z" fill="white"/>
<path d="M94.016 12.1348L89.3965 13.9082L90.0511 15.0592L94.5503 13.0067L94.016 12.1348Z" fill="white"/>
<path d="M96.0953 6.32642L85.1571 10.4715L85.4644 10.984L84.4785 12.5964L95.2644 7.71618L96.0953 6.32642Z" fill="white"/>
<path d="M95.2751 14.1899L90.5889 16.0063L91.198 17.0741L95.7667 14.9921L95.2751 14.1899Z" fill="white"/>
<path d="M97.7275 18.1982L92.8916 20.0548L93.4206 20.9885L98.1149 18.8341L97.7275 18.1982Z" fill="white"/>
<path d="M85.0125 21.5948L85.6777 20.4224L82.6533 21.5948H85.0125Z" fill="white"/>
<path d="M82.4285 5.90237L87.1041 3.85261L86.4522 2.67749L81.6377 4.57431L82.4285 5.90237Z" fill="white"/>
<path d="M98.8896 20.1006L95.0049 21.595H99.806L98.8896 20.1006Z" fill="white"/>
<path d="M79.3703 20.9456L78.8974 20.1729L71.2295 17.2002L72.4238 19.3009L77.4574 21.5948H78.9722H79.7684H81.2833L86.3169 19.3009L87.5112 17.2002L79.8432 20.1729L79.3703 20.9456Z" fill="white"/>
<path d="M83.6124 7.88513L88.1918 5.81659L87.6014 4.75415L82.835 6.57854L83.6124 7.88513Z" fill="white"/>
<path d="M84.7397 9.77121L89.2657 7.7617L88.7019 6.74219L84.0264 8.57462L84.7397 9.77121Z" fill="white"/>
<path d="M83.7515 13.7849L82.3408 16.0922L93.3485 11.0403L93.3137 10.9839L94.0458 9.75781L83.7515 13.7849Z" fill="white"/>
<path d="M61.3539 4.16131L69.15 7.61959L68.2844 6.05545L60.71 3.08545L61.3539 4.16131Z" fill="white"/>
<path d="M61.7656 16.9668L66.3958 19.0917L66.9782 18.0668L62.2198 16.2236L61.7656 16.9668Z" fill="white"/>
<path d="M65.2735 0.614502H64.2529L65.6022 1.20743L65.2735 0.614502Z" fill="white"/>
<path d="M78.2956 2.57282L73.4117 0.638428L72.7598 1.8216L77.4781 3.9438L78.2956 2.57282Z" fill="white"/>
<path d="M67.3548 4.37596L66.6067 3.02109L60.3174 0.614502H59.2354L59.3128 0.743277L67.3548 4.37596Z" fill="white"/>
<path d="M76.8238 16.7843L69.3643 13.9189L70.4757 15.8721L78.5017 19.5289L76.8238 16.7843Z" fill="white"/>
<path d="M64.1885 13.0067L68.6877 15.0592L69.3423 13.9082L64.7228 12.1348L64.1885 13.0067Z" fill="white"/>
<path d="M62.6445 6.32642L63.4754 7.71618L74.2613 12.5964L73.2754 10.984L73.5827 10.4715L62.6445 6.32642Z" fill="white"/>
<path d="M62.9736 14.9921L67.5423 17.0741L68.1515 16.0063L63.4652 14.1899L62.9736 14.9921Z" fill="white"/>
<path d="M60.6221 18.8341L65.319 20.9885L65.848 20.0548L61.0121 18.1982L60.6221 18.8341Z" fill="white"/>
<path d="M73.7268 21.5948H76.086L73.0615 20.4224L73.7268 21.5948Z" fill="white"/>
<path d="M79.3695 0.775479L80.0588 1.93182L82.9977 0.614502H79.4656H79.2733H75.7412L78.6801 1.93182L79.3695 0.775479Z" fill="white"/>
<path d="M77.1012 4.57431L72.2867 2.67749L71.6348 3.85261L76.3103 5.90237L77.1012 4.57431Z" fill="white"/>
<path d="M58.9336 21.595H63.7347L59.8473 20.1006L58.9336 21.595Z" fill="white"/>
<path d="M75.9047 6.57854L71.1356 4.75415L70.5479 5.81659L75.1272 7.88513L75.9047 6.57854Z" fill="white"/>
<path d="M74.7127 8.57462L70.0371 6.74219L69.4707 7.7617L73.9993 9.77121L74.7127 8.57462Z" fill="white"/>
<path d="M76.3993 16.0922L74.9886 13.7849L64.6943 9.75781L65.4264 10.9839L65.3917 11.0403L76.3993 16.0922Z" fill="white"/>
</g>
<defs>
<clipPath id="clip0_357_3896">
<rect width="210" height="22" fill="white"/>
</clipPath>
</defs>
</svg>
