<svg width="22" height="22" viewBox="0 0 22 22" fill="none" xmlns="http://www.w3.org/2000/svg">
<path d="M14.8743 12.2238L15.2729 11.8275L14.3474 10.8968L13.9489 11.2931L14.8743 12.2238ZM16.6113 11.6615L18.283 12.5703L18.9098 11.4172L17.2382 10.5085L16.6113 11.6615ZM18.6048 14.3765L17.3618 15.6124L18.2872 16.5432L19.5302 15.3072L18.6048 14.3765ZM16.6044 16.0104C15.3357 16.1286 12.0534 16.0233 8.49969 12.4896L7.57425 13.4204C11.4523 17.2764 15.1433 17.4647 16.7262 17.3172L16.6044 16.0104ZM8.49969 12.4896C5.11223 9.12143 4.5511 6.28848 4.48125 5.05946L3.17087 5.13393C3.25877 6.68078 3.95358 9.82029 7.57425 13.4204L8.49969 12.4896ZM9.70309 7.0819L9.95404 6.83236L9.02864 5.90164L8.77768 6.15118L9.70309 7.0819ZM10.1538 3.65155L9.05047 2.1777L7.99978 2.96427L9.1031 4.43813L10.1538 3.65155ZM5.33958 1.8569L3.96618 3.22251L4.89162 4.15323L6.26502 2.78762L5.33958 1.8569ZM9.24039 6.61654C8.77768 6.15118 8.77705 6.1518 8.77642 6.15243C8.77621 6.15264 8.77558 6.15328 8.77515 6.15371C8.7743 6.15457 8.77342 6.15545 8.77254 6.15635C8.77076 6.15816 8.76892 6.16004 8.76703 6.162C8.76325 6.16593 8.75924 6.17018 8.75502 6.17477C8.74658 6.18393 8.73731 6.19441 8.72739 6.20625C8.70755 6.22992 8.68507 6.25906 8.66145 6.29393C8.61408 6.36384 8.56248 6.45626 8.51868 6.5725C8.42932 6.80967 8.38141 7.12231 8.44147 7.50946C8.55893 8.26658 9.08035 9.26667 10.416 10.5948L11.3414 9.66401C10.0915 8.42115 9.79374 7.6648 9.73844 7.30824C9.7121 7.13855 9.7394 7.05503 9.74693 7.03526C9.75148 7.02303 9.75367 7.02178 9.74807 7.03013C9.74527 7.03422 9.74063 7.04061 9.73337 7.04923C9.72978 7.05355 9.72549 7.05843 9.7205 7.06387C9.71797 7.06659 9.71534 7.06945 9.71237 7.07246C9.71097 7.07396 9.70948 7.07549 9.7079 7.07707C9.70712 7.07785 9.70633 7.07865 9.70554 7.07945C9.70519 7.07986 9.70458 7.08047 9.70432 7.08067C9.7037 7.08128 9.70309 7.0819 9.24039 6.61654ZM10.416 10.5948C11.7522 11.9233 12.7569 12.4403 13.5153 12.5567C13.9028 12.6161 14.2153 12.5687 14.4523 12.4804C14.5685 12.4371 14.6611 12.3861 14.7311 12.3392C14.7661 12.3157 14.7953 12.2934 14.819 12.2737C14.8309 12.2639 14.8414 12.2547 14.8506 12.2463C14.8553 12.2421 14.8596 12.2382 14.8635 12.2344C14.8655 12.2325 14.8673 12.2306 14.8692 12.2289C14.8701 12.228 14.8709 12.2271 14.8718 12.2263C14.8722 12.2258 14.8729 12.2252 14.8731 12.225C14.8737 12.2244 14.8743 12.2238 14.4116 11.7584C13.9489 11.2931 13.9496 11.2925 13.9502 11.2919C13.9503 11.2917 13.951 11.2911 13.9514 11.2906C13.9522 11.2899 13.953 11.2891 13.9538 11.2883C13.9554 11.2868 13.9569 11.2853 13.9584 11.2838C13.9615 11.2809 13.9643 11.2783 13.9671 11.2758C13.9725 11.2709 13.9774 11.2666 13.9818 11.2631C13.9903 11.2559 13.9967 11.2513 14.0007 11.2486C14.0088 11.2432 14.0071 11.2457 13.9942 11.2505C13.9727 11.2584 13.8869 11.2858 13.7144 11.2593C13.3527 11.2039 12.591 10.9064 11.3414 9.66401L10.416 10.5948ZM9.05047 2.1777C8.15858 0.986305 6.40474 0.797787 5.33958 1.8569L6.26502 2.78762C6.73024 2.32504 7.55648 2.37212 7.99978 2.96427L9.05047 2.1777ZM4.48125 5.05946C4.46404 4.75661 4.60294 4.44026 4.89162 4.15323L3.96618 3.22251C3.49603 3.68999 3.12641 4.35176 3.17087 5.13393L4.48125 5.05946ZM17.3618 15.6124C17.1213 15.8516 16.8636 15.9862 16.6044 16.0104L16.7262 17.3172C17.369 17.2573 17.8956 16.9326 18.2872 16.5432L17.3618 15.6124ZM9.95404 6.83236C10.8155 5.9758 10.8795 4.62095 10.1538 3.65155L9.1031 4.43813C9.45617 4.90974 9.40367 5.52875 9.02864 5.90164L9.95404 6.83236ZM18.283 12.5703C18.9986 12.9593 19.11 13.8741 18.6048 14.3765L19.5302 15.3072C20.703 14.1411 20.3413 12.1954 18.9098 11.4172L18.283 12.5703ZM15.2729 11.8275C15.6089 11.4935 16.1497 11.4107 16.6113 11.6615L17.2382 10.5085C16.29 9.99301 15.1133 10.1354 14.3474 10.8968L15.2729 11.8275Z" fill="black"/>
</svg>
