<svg width="14" height="14" viewBox="0 0 14 14" fill="none" xmlns="http://www.w3.org/2000/svg">
<path d="M9.08632 9.26061L9.38999 8.95868L8.68486 8.24954L8.38126 8.55148L9.08632 9.26061ZM10.4097 8.83221L11.6834 9.52461L12.161 8.64608L10.8873 7.95368L10.4097 8.83221ZM11.9286 10.9007L10.9815 11.8424L11.6866 12.5515L12.6337 11.6099L11.9286 10.9007ZM10.4045 12.1456C9.43786 12.2357 6.93706 12.1554 4.22945 9.46314L3.52435 10.1723C6.47906 13.1102 9.29126 13.2537 10.4973 13.1413L10.4045 12.1456ZM4.22945 9.46314C1.64853 6.89688 1.221 4.73844 1.16778 3.80204L0.169392 3.85878C0.236365 5.03734 0.765745 7.42934 3.52435 10.1723L4.22945 9.46314ZM5.14633 5.34295L5.33753 5.15282L4.63246 4.44371L4.44125 4.63383L5.14633 5.34295ZM5.48973 2.72935L4.64909 1.60642L3.84856 2.20571L4.68919 3.32865L5.48973 2.72935ZM1.82174 1.362L0.775345 2.40246L1.48044 3.11158L2.52684 2.07112L1.82174 1.362ZM4.79379 4.98839C4.44125 4.63383 4.44077 4.6343 4.44029 4.63478C4.44013 4.63494 4.43965 4.63543 4.43933 4.63576C4.43867 4.63642 4.438 4.63708 4.43733 4.63777C4.43598 4.63915 4.43458 4.64058 4.43314 4.64208C4.43025 4.64507 4.4272 4.64831 4.42399 4.6518C4.41755 4.65878 4.41049 4.66677 4.40293 4.67579C4.38782 4.69382 4.37069 4.71603 4.35269 4.7426C4.31661 4.79586 4.27729 4.86628 4.24392 4.95484C4.17583 5.13554 4.13933 5.37374 4.18509 5.66871C4.27459 6.24556 4.67186 7.00754 5.68953 8.01941L6.39459 7.31028C5.44226 6.36334 5.21539 5.78707 5.17326 5.5154C5.15319 5.38612 5.17399 5.32248 5.17973 5.30742C5.18319 5.2981 5.18486 5.29714 5.18059 5.30351C5.17846 5.30662 5.17493 5.3115 5.16939 5.31806C5.16666 5.32135 5.16339 5.32507 5.15959 5.32922C5.15766 5.33129 5.15566 5.33347 5.15339 5.33576C5.15233 5.3369 5.15119 5.33807 5.14999 5.33927C5.14939 5.33987 5.14879 5.34048 5.14819 5.34109C5.14792 5.3414 5.14746 5.34186 5.14726 5.34202C5.14679 5.34248 5.14633 5.34295 4.79379 4.98839ZM5.68953 8.01941C6.70753 9.03161 7.47306 9.42554 8.05086 9.51421C8.34612 9.55948 8.58419 9.52334 8.76479 9.45608C8.85332 9.42308 8.92386 9.38421 8.97719 9.34848C9.00386 9.33061 9.02612 9.31361 9.04419 9.29861C9.05326 9.29114 9.06126 9.28414 9.06826 9.27774C9.07179 9.27454 9.07506 9.27154 9.07806 9.26868C9.07959 9.26721 9.08099 9.26581 9.08239 9.26448C9.08306 9.26381 9.08373 9.26314 9.08439 9.26248C9.08473 9.26214 9.08526 9.26168 9.08539 9.26154C9.08586 9.26108 9.08633 9.26061 8.73379 8.90601C8.38126 8.55148 8.38173 8.55101 8.38219 8.55054C8.38233 8.55041 8.38279 8.54994 8.38313 8.54961C8.38373 8.54901 8.38433 8.54841 8.38493 8.54781C8.38619 8.54668 8.38733 8.54554 8.38846 8.54441C8.39079 8.54221 8.39299 8.54021 8.39506 8.53828C8.39919 8.53454 8.40293 8.53128 8.40626 8.52861C8.41279 8.52314 8.41766 8.51968 8.42066 8.51761C8.42686 8.51348 8.42559 8.51534 8.41573 8.51901C8.39939 8.52508 8.33399 8.54594 8.20253 8.52574C7.92699 8.48354 7.34666 8.25688 6.39459 7.31028L5.68953 8.01941ZM4.64909 1.60642C3.96955 0.69869 2.6333 0.555056 1.82174 1.362L2.52684 2.07112C2.88129 1.71868 3.51081 1.75455 3.84856 2.20571L4.64909 1.60642ZM1.16778 3.80204C1.15467 3.5713 1.26049 3.33028 1.48044 3.11158L0.775345 2.40246C0.417132 2.75864 0.135518 3.26284 0.169392 3.85878L1.16778 3.80204ZM10.9815 11.8424C10.7983 12.0246 10.6019 12.1272 10.4045 12.1456L10.4973 13.1413C10.987 13.0956 11.3883 12.8482 11.6866 12.5515L10.9815 11.8424ZM5.33753 5.15282C5.99386 4.50021 6.04266 3.46794 5.48973 2.72935L4.68919 3.32865C4.95819 3.68797 4.91819 4.1596 4.63246 4.44371L5.33753 5.15282ZM11.6834 9.52461C12.2286 9.82101 12.3135 10.5179 11.9286 10.9007L12.6337 11.6099C13.5272 10.7214 13.2517 9.23894 12.161 8.64608L11.6834 9.52461ZM9.38999 8.95868C9.64599 8.70414 10.0581 8.64108 10.4097 8.83221L10.8873 7.95368C10.1649 7.56094 9.26839 7.66941 8.68486 8.24954L9.38999 8.95868Z" fill="white"/>
</svg>
