<svg width="17" height="16" viewBox="0 0 17 16" fill="none" xmlns="http://www.w3.org/2000/svg">
<g clip-path="url(#clip0_2313_620)">
<path d="M14.1455 2.10594C14.1455 2.10594 15.5331 1.58651 15.4175 2.84798C15.3789 3.36742 15.032 5.18541 14.7622 7.15184L13.8371 12.9769C13.8371 12.9769 13.7601 13.8302 13.0663 13.9786C12.3724 14.127 11.3318 13.4592 11.139 13.3108C10.9848 13.1995 8.24818 11.5299 7.28453 10.7136C7.01471 10.491 6.70636 10.0458 7.32307 9.52636L11.3703 5.81617C11.8328 5.37094 12.2954 4.33208 10.3681 5.59355L4.97186 9.11826C4.97186 9.11826 4.35514 9.48926 3.19882 9.15536L0.693396 8.41331C0.693396 8.41331 -0.23168 7.85678 1.34866 7.30023C5.20314 5.55642 9.94415 3.77552 14.1455 2.10594Z" fill="black"/>
</g>
<defs>
<clipPath id="clip0_2313_620">
<rect width="16" height="16" fill="white" transform="translate(0.424316)"/>
</clipPath>
</defs>
</svg>
