<svg width="16" height="16" viewBox="0 0 16 16" fill="none" xmlns="http://www.w3.org/2000/svg">
<g id="Icon">
<path id="Vector" d="M13.7212 2.10594C13.7212 2.10594 15.1088 1.58651 14.9932 2.84798C14.9546 3.36742 14.6077 5.18541 14.3379 7.15184L13.4128 12.9769C13.4128 12.9769 13.3358 13.8302 12.6419 13.9786C11.9481 14.127 10.9074 13.4592 10.7147 13.3108C10.5605 13.1995 7.82386 11.5299 6.86022 10.7136C6.5904 10.491 6.28204 10.0458 6.89875 9.52636L10.946 5.81617C11.4085 5.37094 11.871 4.33208 9.94379 5.59355L4.54754 9.11826C4.54754 9.11826 3.93082 9.48926 2.7745 9.15536L0.269079 8.41331C0.269079 8.41331 -0.655997 7.85678 0.92434 7.30023C4.77882 5.55642 9.51983 3.77552 13.7212 2.10594Z" fill="white"/>
</g>
</svg>
