<svg width="69" height="66" viewBox="0 0 69 66" fill="none" xmlns="http://www.w3.org/2000/svg">
<path d="M62.4936 8.61157L37.9224 17.7793L35.1143 22.6074L60.4048 11.9325L62.4936 8.61157Z" fill="black"/>
<path d="M57.5876 49.1661L42.1602 54.8556L44.0496 58.0191L59.0696 51.4601L57.5876 49.1661Z" fill="black"/>
<path d="M47.6814 0.984253L46.624 2.81502L51.0009 0.984253H47.6814Z" fill="black"/>
<path d="M8.09842 11.2618L23.4045 4.71107L21.2897 1.0589L5.44629 7.0299L8.09842 11.2618Z" fill="black"/>
<path d="M67.2773 0.984253H63.7671L43.3648 8.41282L40.938 12.595L67.026 1.38175L67.2773 0.984253Z" fill="black"/>
<path d="M4.7793 59.3687L30.8152 48.081L34.4208 42.052L10.2222 50.8967L4.7793 59.3687Z" fill="black"/>
<path d="M49.4761 36.5452L34.4907 42.0193L36.6141 45.5721L51.2096 39.2367L49.4761 36.5452Z" fill="black"/>
<path d="M56.2192 18.6155L20.7361 31.4106L21.7328 32.9923L18.5347 37.9696L53.5237 22.9054L56.2192 18.6155Z" fill="black"/>
<path d="M53.5585 42.8884L38.3564 48.495L40.3325 51.7911L55.1533 45.3646L53.5585 42.8884Z" fill="black"/>
<path d="M61.5131 55.2615L45.8257 60.9924L47.5418 63.8744L62.7699 57.2243L61.5131 55.2615Z" fill="black"/>
<path d="M20.2673 65.7461L22.4254 62.1271L12.6143 65.7461H20.2673Z" fill="black"/>
<path d="M11.8863 17.3068L27.0537 10.9797L24.9389 7.35236L9.3208 13.2074L11.8863 17.3068Z" fill="black"/>
<path d="M65.2841 61.1331L52.6821 65.746H68.2569L65.2841 61.1331Z" fill="black"/>
<path d="M0.261971 65.4976L0 65.7455H0.669965H3.25277H8.16703L24.4958 58.6648L28.37 52.1803L3.49545 61.3563L0.261971 65.4976Z" fill="black"/>
<path d="M15.7257 23.4274L30.5811 17.0422L28.6657 13.7628L13.2036 19.3942L15.7257 23.4274Z" fill="black"/>
<path d="M19.3835 29.2486L34.0655 23.0457L32.2368 19.8987L17.0693 25.555L19.3835 29.2486Z" fill="black"/>
<path d="M16.1773 41.6387L11.6011 48.7609L47.3095 33.1667L47.1969 32.9927L49.5716 29.2081L16.1773 41.6387Z" fill="black"/>
<path d="M1.9634 1.48115L4.1995 5.0505L13.7333 0.984253H2.2754H1.65137L1.9634 1.48115Z" fill="black"/>
</svg>
